<?xml version="1.0" encoding="utf-8"?>
<!-- Generator: Adobe Illustrator 13.0.0, SVG Export Plug-In . SVG Version: 6.00 Build 14948)  -->
<!DOCTYPE svg PUBLIC "-//W3C//DTD SVG 1.0//EN" "http://www.w3.org/TR/2001/REC-SVG-20010904/DTD/svg10.dtd">
<svg version="1.0" id="svg2354" xmlns:svg="http://www.w3.org/2000/svg"
	 xmlns="http://www.w3.org/2000/svg" xmlns:xlink="http://www.w3.org/1999/xlink" x="0px" y="0px" width="43.05px"
	 height="59.891px" viewBox="0 0 43.05 59.891" enable-background="new 0 0 43.05 59.891" xml:space="preserve">
<g id="g3082" transform="matrix(1.25,0,0,-1.25,-135.50563,1296.5914)">
	<g id="g3084">
		<g id="g3090">
			<rect x="14.07" y="15.445" fill="none" width="33.212" height="44.354"/>
			<g id="g3092">
				<g id="g3098">
					<g id="g3100" transform="matrix(9.2447205,0,0,-12.346054,432.02982,349.90491)">
						<g id="g3102">
							<path id="path3104" fill="#ED1C24" d="M-44.654,23.909c-0.009,0.007-0.018,0.014-0.027,0.021c0.016,0,0.031,0,0.045,0.002
								c-0.002-0.012-0.005-0.025,0-0.036C-44.642,23.9-44.648,23.904-44.654,23.909z"/>
							<path id="path3106" fill="#ED1C24" d="M-44.636,23.896c-0.005,0.011-0.002,0.024,0,0.036
								c0.014,0.001,0.026,0.003,0.037,0.004c-0.007-0.015-0.016-0.033-0.019-0.054C-44.624,23.887-44.63,23.891-44.636,23.896z"/>
							<path id="path3108" fill="#ED1C24" d="M-44.681,23.93c0.016,0,0.031,0,0.045,0.002c0.001,0.006,0.002,0.012,0.002,0.017
								c-0.017-0.003-0.037-0.006-0.06-0.008C-44.69,23.937-44.685,23.933-44.681,23.93z"/>
							<path id="path3110" fill="#ED1C24" d="M-44.694,23.941c0.023,0.002,0.043,0.005,0.06,0.008c0,0.005-0.002,0.01-0.006,0.013
								c-0.018-0.003-0.04-0.007-0.067-0.011C-44.703,23.948-44.699,23.944-44.694,23.941z"/>
							<path id="path3112" fill="#DE1A21" d="M-44.636,23.932c0.014,0.001,0.026,0.003,0.037,0.004
								c0.003,0.008,0.006,0.014,0.007,0.02c-0.012-0.002-0.025-0.004-0.042-0.007C-44.634,23.944-44.635,23.938-44.636,23.932z"/>
							<path id="path3114" fill="#D61820" d="M-44.634,23.949c0.017,0.003,0.03,0.005,0.042,0.007c0.001,0.006,0,0.011-0.004,0.014
								c-0.012-0.002-0.026-0.005-0.044-0.008C-44.636,23.959-44.635,23.954-44.634,23.949z"/>
							<path id="path3116" fill="#ED1C24" d="M-44.618,23.882c0.006-0.004,0.012-0.009,0.018-0.013
								c0.006,0.015,0.012,0.028,0.017,0.039c-0.008,0.002-0.018,0.002-0.027,0.003C-44.614,23.902-44.617,23.893-44.618,23.882z"/>
							<path id="path3118" fill="#DE1A21" d="M-44.61,23.911c0.009,0,0.018-0.001,0.027-0.003c0.005,0.011,0.01,0.021,0.014,0.029
								c-0.009,0.001-0.018,0-0.03-0.001C-44.602,23.928-44.606,23.92-44.61,23.911z"/>
							<path id="path3120" fill="#ED1C24" d="M-44.6,23.87c0.006-0.004,0.012-0.009,0.018-0.013
								c0.008,0.017,0.015,0.031,0.021,0.043c-0.006,0.004-0.014,0.007-0.022,0.008C-44.589,23.897-44.594,23.884-44.6,23.87z"/>
							<path id="path3122" fill="#D61820" d="M-44.583,23.908c0.008-0.002,0.016-0.004,0.022-0.008
								c0.006,0.012,0.011,0.022,0.015,0.031c-0.006,0.004-0.014,0.006-0.023,0.007C-44.573,23.929-44.578,23.92-44.583,23.908z"/>
							<path id="path3124" fill="#CF171E" d="M-44.599,23.936c0.011,0.001,0.021,0.002,0.03,0.001
								c0.004,0.008,0.006,0.015,0.007,0.021c-0.008,0.001-0.018,0-0.03-0.002C-44.593,23.95-44.596,23.944-44.599,23.936z"/>
							<path id="path3126" fill="#C5161C" d="M-44.592,23.956c0.012,0.002,0.021,0.003,0.03,0.002
								c0.001,0.006-0.001,0.01-0.005,0.014c-0.008,0.001-0.017,0-0.029-0.002C-44.592,23.966-44.591,23.962-44.592,23.956z"/>
							<path id="path3128" fill="#C5161C" d="M-44.569,23.937c0.009-0.001,0.016-0.002,0.023-0.007
								c0.004,0.009,0.006,0.015,0.006,0.021c-0.006,0.004-0.014,0.006-0.022,0.007C-44.563,23.953-44.566,23.946-44.569,23.937z"/>
							<path id="path3130" fill="#B9141A" d="M-44.563,23.958c0.008,0,0.015-0.002,0.022-0.007c0,0.006-0.001,0.01-0.005,0.014
								c-0.007,0.004-0.013,0.006-0.021,0.007C-44.563,23.969-44.562,23.964-44.563,23.958z"/>
							<path id="path3132" fill="#ED1C24" d="M-44.582,23.857c0.05-0.034,0.101-0.066,0.155-0.095
								c0.01,0.018,0.019,0.032,0.026,0.045c-0.054,0.03-0.11,0.06-0.16,0.094C-44.567,23.888-44.574,23.874-44.582,23.857z"/>
							<path id="path3134" fill="#D3181F" d="M-44.561,23.9c0.05-0.034,0.106-0.064,0.16-0.094c0.007,0.012,0.012,0.022,0.016,0.03
								c-0.055,0.03-0.11,0.061-0.161,0.094C-44.55,23.922-44.555,23.912-44.561,23.9z"/>
							<path id="path3136" fill="#C0151C" d="M-44.547,23.931c0.051-0.033,0.107-0.064,0.161-0.094
								c0.004,0.008,0.006,0.014,0.006,0.02c-0.055,0.031-0.109,0.062-0.161,0.095C-44.541,23.946-44.543,23.939-44.547,23.931z"/>
							<path id="path3138" fill="#B5141A" d="M-44.541,23.952c0.053-0.033,0.106-0.064,0.161-0.095c0,0.005-0.001,0.009-0.004,0.013
								c-0.055,0.031-0.109,0.063-0.163,0.096C-44.542,23.962-44.54,23.957-44.541,23.952z"/>
							<path id="path3140" fill="#ED1C24" d="M-44.427,23.762c0.097-0.053,0.201-0.099,0.31-0.137
								c0.008,0.014,0.016,0.026,0.022,0.036c-0.109,0.039-0.209,0.092-0.306,0.146C-44.408,23.794-44.417,23.779-44.427,23.762z"/>
							<path id="path3142" fill="#D3181F" d="M-44.401,23.806c0.097-0.054,0.197-0.107,0.306-0.146
								c0.006,0.01,0.011,0.019,0.015,0.026c-0.109,0.041-0.207,0.095-0.305,0.15C-44.389,23.828-44.394,23.819-44.401,23.806z"/>
							<path id="path3144" fill="#C0151C" d="M-44.385,23.837c0.098-0.055,0.196-0.108,0.305-0.15
								c0.004,0.007,0.007,0.013,0.008,0.018c-0.109,0.044-0.208,0.096-0.307,0.151C-44.38,23.851-44.382,23.845-44.385,23.837z"/>
							<path id="path3146" fill="#B5141A" d="M-44.379,23.856c0.099-0.056,0.198-0.107,0.307-0.151
								c0.002,0.005,0.002,0.008,0.001,0.011c-0.109,0.045-0.213,0.097-0.312,0.153C-44.38,23.866-44.379,23.862-44.379,23.856z"/>
							<path id="path3148" fill="#ED1C24" d="M-44.117,23.624c0.042-0.015,0.085-0.028,0.129-0.041
								c0.008,0.014,0.015,0.026,0.02,0.036c-0.043,0.012-0.085,0.026-0.127,0.041C-44.101,23.65-44.109,23.638-44.117,23.624z"/>
							<path id="path3150" fill="#D3181F" d="M-44.095,23.661c0.042-0.015,0.084-0.029,0.127-0.041
								c0.005,0.01,0.01,0.018,0.013,0.025c-0.042,0.013-0.084,0.027-0.126,0.043C-44.084,23.68-44.089,23.671-44.095,23.661z"/>
							<path id="path3152" fill="#C0151C" d="M-44.08,23.687c0.042-0.016,0.083-0.03,0.126-0.043
								c0.003,0.007,0.006,0.012,0.007,0.016c-0.042,0.013-0.084,0.028-0.125,0.045C-44.074,23.7-44.077,23.694-44.08,23.687z"/>
							<path id="path3154" fill="#B5141A" d="M-44.073,23.705c0.041-0.016,0.082-0.031,0.125-0.045
								c0.001,0.004,0.002,0.007,0.002,0.009c-0.043,0.014-0.085,0.029-0.126,0.046C-44.071,23.713-44.071,23.71-44.073,23.705z"/>
							<path id="path3156" fill="#ED1C24" d="M-43.988,23.584c0.044-0.012,0.088-0.023,0.132-0.033
								c0.008,0.014,0.014,0.025,0.019,0.035c-0.045,0.01-0.089,0.021-0.132,0.034C-43.974,23.609-43.98,23.597-43.988,23.584z"/>
							<path id="path3158" fill="#D1181F" d="M-43.968,23.619c0.043-0.013,0.087-0.024,0.132-0.034
								c0.005,0.01,0.009,0.017,0.013,0.024c-0.045,0.01-0.088,0.022-0.131,0.035C-43.958,23.638-43.963,23.629-43.968,23.619z"/>
							<path id="path3160" fill="#BD151B" d="M-43.955,23.644c0.043-0.013,0.086-0.024,0.131-0.035
								c0.003,0.006,0.006,0.011,0.007,0.015c-0.045,0.011-0.089,0.023-0.131,0.036C-43.949,23.656-43.952,23.651-43.955,23.644z"/>
							<path id="path3162" fill="#B11319" d="M-43.948,23.66c0.042-0.013,0.086-0.026,0.131-0.036
								c0.002,0.004,0.003,0.006,0.003,0.008c-0.045,0.011-0.09,0.024-0.133,0.038C-43.946,23.668-43.946,23.665-43.948,23.66z"/>
							<path id="path3164" fill="#ED1C24" d="M-43.856,23.551c0.059-0.013,0.119-0.023,0.18-0.032
								c0.008,0.014,0.014,0.025,0.019,0.034c-0.061,0.008-0.12,0.019-0.179,0.032C-43.842,23.576-43.848,23.564-43.856,23.551z"/>
							<path id="path3166" fill="#CD171E" d="M-43.837,23.586c0.059-0.013,0.119-0.024,0.179-0.032
								c0.005,0.009,0.009,0.017,0.013,0.022c-0.061,0.009-0.12,0.02-0.179,0.034C-43.827,23.603-43.831,23.595-43.837,23.586z"/>
							<path id="path3168" fill="#B7141A" d="M-43.824,23.609c0.059-0.014,0.118-0.025,0.179-0.034
								c0.003,0.006,0.006,0.01,0.008,0.013c-0.062,0.009-0.121,0.021-0.18,0.035C-43.818,23.62-43.821,23.616-43.824,23.609z"/>
							<path id="path3170" fill="#AA1218" d="M-43.817,23.624c0.06-0.015,0.118-0.026,0.18-0.035
								c0.002,0.003,0.004,0.005,0.006,0.006c-0.062,0.01-0.124,0.022-0.183,0.037C-43.814,23.63-43.815,23.628-43.817,23.624z"/>
							<path id="path3172" fill="#ED1C24" d="M-43.676,23.519c0.046-0.006,0.093-0.011,0.14-0.014
								c0.008,0.014,0.014,0.025,0.019,0.034c-0.047,0.003-0.094,0.008-0.14,0.015C-43.662,23.544-43.669,23.533-43.676,23.519z"/>
							<path id="path3174" fill="#CA171D" d="M-43.657,23.553c0.047-0.006,0.093-0.011,0.14-0.015
								c0.005,0.009,0.01,0.016,0.013,0.021c-0.047,0.004-0.094,0.009-0.141,0.016C-43.648,23.57-43.652,23.563-43.657,23.553z"/>
							<path id="path3176" fill="#B11319" d="M-43.645,23.576c0.047-0.007,0.094-0.012,0.141-0.016
								c0.004,0.005,0.007,0.009,0.01,0.012c-0.047,0.004-0.094,0.01-0.142,0.017C-43.639,23.586-43.641,23.581-43.645,23.576z"/>
							<path id="path3178" fill="#A21116" d="M-43.636,23.589c0.048-0.007,0.095-0.013,0.142-0.017
								c0.003,0.003,0.006,0.004,0.009,0.006c-0.049,0.004-0.097,0.01-0.145,0.018C-43.632,23.594-43.634,23.592-43.636,23.589z"/>
							<path id="path3180" fill="#ED1C24" d="M-43.536,23.505c0.047-0.003,0.094-0.005,0.141-0.006
								c0.008,0.014,0.014,0.025,0.02,0.034c-0.047,0.001-0.094,0.003-0.141,0.006C-43.522,23.53-43.529,23.519-43.536,23.505z"/>
							<path id="path3182" fill="#C8161D" d="M-43.517,23.539c0.047-0.003,0.094-0.005,0.141-0.006
								c0.005,0.009,0.01,0.016,0.014,0.021c-0.048,0.001-0.095,0.003-0.142,0.007C-43.508,23.555-43.512,23.548-43.517,23.539z"/>
							<path id="path3184" fill="#AC1318" d="M-43.504,23.56c0.047-0.004,0.094-0.006,0.142-0.007
								c0.004,0.005,0.008,0.009,0.011,0.011c-0.049,0.001-0.096,0.003-0.144,0.007C-43.497,23.569-43.5,23.565-43.504,23.56z"/>
							<path id="path3186" fill="#9B1015" d="M-43.494,23.572c0.047-0.004,0.095-0.006,0.144-0.007
								c0.004,0.002,0.007,0.004,0.011,0.005c-0.049,0.001-0.098,0.004-0.146,0.008C-43.488,23.576-43.491,23.575-43.494,23.572z"/>
							<path id="path3188" fill="#ED1C24" d="M-43.395,23.499c0.075-0.001,0.151,0.002,0.225,0.009
								c0.008,0.014,0.014,0.026,0.02,0.035c-0.075-0.007-0.15-0.01-0.226-0.009C-43.381,23.524-43.388,23.513-43.395,23.499z"/>
							<path id="path3190" fill="#C5161C" d="M-43.376,23.533c0.076-0.001,0.151,0.003,0.226,0.009
								c0.006,0.009,0.011,0.016,0.015,0.02c-0.076-0.007-0.15-0.01-0.227-0.009C-43.366,23.548-43.371,23.542-43.376,23.533z"/>
							<path id="path3192" fill="#A61217" d="M-43.362,23.554c0.077-0.001,0.151,0.002,0.227,0.009
								c0.005,0.005,0.009,0.008,0.014,0.01c-0.077-0.007-0.152-0.01-0.229-0.008C-43.354,23.562-43.358,23.559-43.362,23.554z"/>
							<path id="path3194" fill="#940F14" d="M-43.35,23.565c0.078-0.002,0.153,0.001,0.229,0.008
								c0.005,0.002,0.01,0.004,0.016,0.005c-0.077-0.007-0.155-0.01-0.234-0.008C-43.343,23.569-43.347,23.567-43.35,23.565z"/>
							<path id="path3196" fill="#ED1C24" d="M-43.17,23.507c0.053,0.005,0.106,0.011,0.158,0.019
								c0.008,0.014,0.015,0.025,0.022,0.033c-0.053-0.009-0.106-0.013-0.16-0.018C-43.156,23.533-43.162,23.522-43.17,23.507z"/>
							<path id="path3198" fill="#C1161C" d="M-43.15,23.542c0.053,0.005,0.106,0.009,0.16,0.018
								c0.007,0.009,0.013,0.016,0.019,0.021c-0.056-0.009-0.11-0.014-0.163-0.019C-43.139,23.558-43.144,23.551-43.15,23.542z"/>
							<path id="path3200" fill="#A21116" d="M-43.135,23.563c0.054,0.005,0.108,0.009,0.163,0.019
								c0.006,0.005,0.012,0.009,0.019,0.013c-0.059-0.01-0.114-0.016-0.168-0.021C-43.126,23.571-43.13,23.568-43.135,23.563z"/>
							<path id="path3202" fill="#8E0E13" d="M-43.121,23.573c0.054,0.005,0.11,0.011,0.168,0.021
								c0.006,0.003,0.013,0.005,0.02,0.008c-0.06-0.011-0.119-0.019-0.173-0.024C-43.111,23.577-43.116,23.575-43.121,23.573z"/>
							<path id="path3204" fill="#ED1C24" d="M-43.013,23.527c0.035,0.005,0.069,0.012,0.103,0.019
								c0.008,0.013,0.016,0.024,0.025,0.033c-0.035-0.007-0.07-0.013-0.105-0.018C-42.997,23.551-43.004,23.54-43.013,23.527z"/>
							<path id="path3206" fill="#C4161C" d="M-42.99,23.56c0.035,0.006,0.071,0.011,0.105,0.018
								c0.008,0.009,0.016,0.016,0.024,0.022c-0.037-0.008-0.073-0.013-0.11-0.02C-42.978,23.576-42.984,23.569-42.99,23.56z"/>
							<path id="path3208" fill="#A61217" d="M-42.971,23.581c0.037,0.006,0.073,0.012,0.11,0.02
								c0.008,0.006,0.016,0.011,0.024,0.015c-0.039-0.009-0.076-0.015-0.115-0.022C-42.959,23.591-42.965,23.587-42.971,23.581z"/>
							<path id="path3210" fill="#940F14" d="M-42.953,23.594c0.039,0.007,0.076,0.013,0.115,0.022
								c0.008,0.004,0.016,0.007,0.025,0.01c-0.04-0.009-0.08-0.017-0.119-0.024C-42.94,23.6-42.946,23.597-42.953,23.594z"/>
							<path id="path3212" fill="#ED1C24" d="M-42.91,23.546c0.058,0.012,0.114,0.026,0.169,0.042
								c0.008,0.012,0.017,0.023,0.027,0.033c-0.055-0.016-0.112-0.029-0.172-0.042C-42.893,23.57-42.901,23.559-42.91,23.546z"/>
							<path id="path3214" fill="#C5161D" d="M-42.885,23.579c0.059,0.012,0.116,0.026,0.172,0.042
								c0.01,0.009,0.021,0.018,0.032,0.025c-0.057-0.016-0.117-0.03-0.179-0.044C-42.869,23.595-42.877,23.588-42.885,23.579z"/>
							<path id="path3216" fill="#A91217" d="M-42.861,23.601c0.062,0.014,0.123,0.028,0.179,0.044
								c0.011,0.007,0.022,0.013,0.033,0.019c-0.059-0.017-0.123-0.033-0.188-0.048C-42.846,23.612-42.853,23.607-42.861,23.601z"/>
							<path id="path3218" fill="#971014" d="M-42.837,23.616c0.065,0.015,0.129,0.03,0.188,0.048
								c0.01,0.005,0.021,0.01,0.029,0.014c-0.061-0.019-0.126-0.037-0.193-0.052C-42.821,23.623-42.83,23.62-42.837,23.616z"/>
							<path id="path3220" fill="#ED1C24" d="M-42.74,23.587c0.055,0.016,0.109,0.034,0.162,0.054
								c0.007,0.012,0.016,0.022,0.025,0.032c-0.052-0.02-0.105-0.038-0.16-0.053C-42.723,23.611-42.732,23.6-42.74,23.587z"/>
							<path id="path3222" fill="#CB171E" d="M-42.713,23.62c0.055,0.016,0.109,0.033,0.16,0.053c0.01,0.01,0.02,0.018,0.031,0.026
								c-0.049-0.021-0.103-0.039-0.16-0.055C-42.693,23.638-42.703,23.63-42.713,23.62z"/>
							<path id="path3224" fill="#B01319" d="M-42.682,23.645c0.057,0.016,0.111,0.034,0.16,0.055
								c0.011,0.008,0.022,0.015,0.033,0.021c-0.047-0.021-0.102-0.04-0.161-0.058C-42.66,23.658-42.671,23.652-42.682,23.645z"/>
							<path id="path3226" fill="#9E1115" d="M-42.649,23.663c0.059,0.017,0.114,0.036,0.161,0.058
								c0.011,0.006,0.021,0.012,0.031,0.017c-0.046-0.021-0.102-0.042-0.162-0.061C-42.629,23.673-42.639,23.669-42.649,23.663z"/>
							<path id="path3228" fill="#ED1C24" d="M-42.578,23.641c0.025,0.01,0.049,0.019,0.073,0.028
								c0.007,0.011,0.018,0.022,0.031,0.033c-0.024-0.008-0.049-0.017-0.079-0.029C-42.563,23.664-42.572,23.653-42.578,23.641z"/>
							<path id="path3230" fill="#D0181E" d="M-42.553,23.673c0.029,0.012,0.055,0.021,0.079,0.029
								c0.013,0.011,0.028,0.022,0.043,0.032c-0.022-0.008-0.05-0.019-0.09-0.035C-42.533,23.692-42.544,23.683-42.553,23.673z"/>
							<path id="path3232" fill="#ED1C24" d="M-42.505,23.669c0.024,0.009,0.047,0.019,0.07,0.028
								c0.007,0.008,0.016,0.017,0.026,0.026c-0.021-0.007-0.042-0.014-0.065-0.022C-42.487,23.691-42.498,23.68-42.505,23.669z"/>
							<path id="path3234" fill="#D5181F" d="M-42.475,23.702c0.023,0.008,0.045,0.015,0.065,0.022
								c0.01,0.009,0.021,0.019,0.032,0.028c-0.016-0.005-0.032-0.01-0.054-0.018C-42.447,23.724-42.462,23.713-42.475,23.702z"/>
							<path id="path3236" fill="#B8141A" d="M-42.522,23.7c0.04,0.016,0.068,0.027,0.09,0.035c0.015,0.01,0.03,0.02,0.044,0.028
								c-0.021-0.008-0.052-0.021-0.101-0.042C-42.499,23.715-42.511,23.707-42.522,23.7z"/>
							<path id="path3238" fill="#A71217" d="M-42.488,23.721c0.049,0.021,0.08,0.033,0.101,0.042
								c0.014,0.008,0.026,0.015,0.035,0.02c-0.02-0.009-0.052-0.022-0.106-0.045C-42.467,23.733-42.477,23.727-42.488,23.721z"/>
							<path id="path3240" fill="#C2161C" d="M-42.432,23.734c0.022,0.008,0.039,0.013,0.054,0.018
								c0.011,0.009,0.022,0.018,0.032,0.026c-0.01-0.003-0.021-0.007-0.042-0.015C-42.401,23.754-42.417,23.745-42.432,23.734z"/>
							<path id="path3242" fill="#B5141A" d="M-42.387,23.763c0.021,0.008,0.032,0.012,0.042,0.015
								c0.011,0.008,0.02,0.014,0.029,0.019c-0.007-0.002-0.016-0.006-0.036-0.014C-42.361,23.778-42.374,23.771-42.387,23.763z"/>
							<path id="path3244" fill="#ED1C24" d="M-42.435,23.698c0.014,0.016,0.036,0.036,0.058,0.054
								c0.016,0.005,0.031,0.009,0.05,0.015c-0.013-0.014-0.025-0.028-0.04-0.039C-42.39,23.718-42.412,23.708-42.435,23.698z"/>
							<path id="path3246" fill="#ED1C24" d="M-42.367,23.729c0.015,0.011,0.027,0.025,0.04,0.039
								c0.019,0.006,0.044,0.015,0.078,0.028c-0.018-0.011-0.036-0.021-0.051-0.03C-42.323,23.752-42.345,23.74-42.367,23.729z"/>
							<path id="path3248" fill="#D1181F" d="M-42.377,23.752c0.016,0.005,0.031,0.009,0.05,0.015
								c0.006,0.007,0.012,0.014,0.019,0.02c-0.017-0.004-0.027-0.006-0.037-0.009C-42.355,23.77-42.366,23.761-42.377,23.752z"/>
							<path id="path3250" fill="#C6161D" d="M-42.345,23.778c0.011,0.003,0.02,0.005,0.037,0.009
								c0.007,0.006,0.014,0.012,0.021,0.017c-0.016-0.004-0.022-0.005-0.03-0.007C-42.325,23.792-42.334,23.786-42.345,23.778z"/>
							<path id="path3252" fill="#E01A21" d="M-42.327,23.767c0.019,0.006,0.044,0.015,0.078,0.028
								c0.009,0.005,0.018,0.011,0.026,0.016c-0.042-0.013-0.067-0.019-0.085-0.024C-42.315,23.781-42.321,23.774-42.327,23.767z"/>
							<path id="path3254" fill="#D91920" d="M-42.308,23.787c0.017,0.004,0.043,0.011,0.085,0.024
								c0.008,0.005,0.016,0.011,0.024,0.015c-0.046-0.012-0.071-0.019-0.087-0.022C-42.294,23.799-42.301,23.793-42.308,23.787z"/>
							<path id="path3256" fill="#ED1C24" d="M-44.708,23.951c-0.061,0.05-0.117,0.105-0.168,0.162
								c0.036,0.004,0.062,0.008,0.081,0.011c0.051-0.057,0.085-0.103,0.154-0.162C-44.659,23.959-44.681,23.955-44.708,23.951z"/>
							<path id="path3258" fill="#D3181F" d="M-44.641,23.962c-0.069,0.059-0.103,0.105-0.154,0.162
								c0.019,0.003,0.032,0.005,0.041,0.006c0.052-0.056,0.072-0.082,0.157-0.16C-44.608,23.968-44.623,23.965-44.641,23.962z"/>
							<path id="path3260" fill="#C0151C" d="M-44.597,23.97c-0.085,0.078-0.105,0.104-0.157,0.16c0.009,0.001,0.015,0.001,0.02,0
								c0.052-0.055,0.064-0.061,0.166-0.158C-44.576,23.973-44.585,23.972-44.597,23.97z"/>
							<path id="path3262" fill="#B5141A" d="M-44.567,23.972c-0.102,0.097-0.114,0.103-0.166,0.158
								c0.005-0.001,0.011-0.003,0.019-0.006c0.053-0.055,0.059-0.053,0.168-0.159C-44.553,23.97-44.559,23.972-44.567,23.972z"/>
							<path id="path3264" fill="#B11319" d="M-44.546,23.965c0.053-0.033,0.107-0.065,0.163-0.096
								c-0.089,0.107-0.103,0.11-0.14,0.172c-0.075,0.025-0.119,0.052-0.191,0.083C-44.662,24.069-44.655,24.071-44.546,23.965z"/>
							<path id="path3266" fill="#B11319" d="M-44.384,23.869c0.05-0.028,0.1-0.055,0.152-0.081
								c-0.032,0.054-0.048,0.081-0.058,0.103c-0.063,0.027-0.125,0.055-0.184,0.081C-44.454,23.95-44.428,23.922-44.384,23.869z"/>
							<path id="path3268" fill="#B11319" d="M-44.473,23.972c-0.019,0.022-0.032,0.038-0.051,0.069
								c0.034-0.011,0.068-0.024,0.104-0.036c0.016-0.032,0.023-0.05,0.037-0.072C-44.413,23.946-44.444,23.959-44.473,23.972z"/>
							<path id="path3270" fill="#B11319" d="M-44.383,23.932c-0.014,0.023-0.021,0.04-0.037,0.072
								c0.035-0.013,0.071-0.026,0.106-0.039c0.01-0.035,0.014-0.053,0.025-0.075C-44.321,23.905-44.352,23.919-44.383,23.932z"/>
							<path id="path3272" fill="#B11319" d="M-44.231,23.788c0.052-0.026,0.105-0.05,0.16-0.072
								c-0.02,0.055-0.026,0.082-0.028,0.105c-0.063,0.019-0.127,0.044-0.19,0.071C-44.279,23.869-44.263,23.842-44.231,23.788z"/>
							<path id="path3274" fill="#B31419" d="M-44.289,23.891c-0.01,0.022-0.015,0.04-0.025,0.075
								c0.036-0.013,0.072-0.025,0.107-0.036c0.004-0.038,0.005-0.056,0.012-0.077C-44.226,23.865-44.258,23.878-44.289,23.891z"/>
							<path id="path3276" fill="#B5141A" d="M-44.194,23.853c-0.007,0.022-0.008,0.039-0.012,0.077
								c0.036-0.011,0.072-0.021,0.107-0.028c0.001-0.04-0.002-0.059,0-0.082C-44.131,23.83-44.163,23.841-44.194,23.853z"/>
							<path id="path3278" fill="#B11319" d="M-44.072,23.716c-0.02,0.055-0.026,0.082-0.028,0.105
								c0.039-0.012,0.079-0.024,0.119-0.035c-0.004-0.026-0.004-0.055,0.012-0.108C-44.003,23.689-44.038,23.702-44.072,23.716z"/>
							<path id="path3280" fill="#AE1318" d="M-43.968,23.677c-0.016,0.054-0.016,0.083-0.012,0.108
								c0.041-0.012,0.083-0.023,0.125-0.034c-0.007-0.028-0.011-0.057-0.004-0.108C-43.896,23.654-43.932,23.665-43.968,23.677z"/>
							<path id="path3282" fill="#B6141A" d="M-44.099,23.82c-0.001,0.023,0.002,0.042,0,0.082c0.044-0.009,0.088-0.019,0.133-0.027
								c-0.002-0.041-0.01-0.064-0.014-0.09C-44.021,23.797-44.061,23.809-44.099,23.82z"/>
							<path id="path3284" fill="#B41419" d="M-43.98,23.785c0.004,0.026,0.013,0.048,0.014,0.09
								c0.045-0.009,0.091-0.017,0.137-0.024c-0.008-0.045-0.019-0.072-0.026-0.099C-43.897,23.762-43.939,23.774-43.98,23.785z"/>
							<path id="path3286" fill="#A91217" d="M-43.859,23.644c0.074-0.02,0.151-0.037,0.229-0.049
								c0.007,0.047,0.018,0.077,0.033,0.108c-0.086,0.01-0.173,0.028-0.258,0.049C-43.862,23.724-43.866,23.695-43.859,23.644z"/>
							<path id="path3288" fill="#AE1318" d="M-43.855,23.752c0.085-0.021,0.172-0.039,0.258-0.049
								c0.015,0.031,0.032,0.063,0.049,0.114c-0.094,0.008-0.188,0.019-0.281,0.034C-43.837,23.806-43.848,23.779-43.855,23.752z"/>
							<path id="path3290" fill="#9D1015" d="M-43.63,23.595c0.086-0.013,0.174-0.022,0.262-0.025
								c0.011,0.021,0.022,0.04,0.034,0.059c-0.097,0.004-0.193,0.013-0.282,0.026C-43.622,23.638-43.627,23.619-43.63,23.595z"/>
							<path id="path3292" fill="#9E1115" d="M-43.616,23.655c0.089-0.013,0.185-0.022,0.282-0.026
								c0.012,0.018,0.024,0.036,0.036,0.055c-0.102,0.002-0.204,0.008-0.299,0.019C-43.604,23.688-43.611,23.672-43.616,23.655z"/>
							<path id="path3294" fill="#A21116" d="M-43.597,23.703c0.095-0.011,0.197-0.017,0.299-0.019
								c0.025,0.037,0.053,0.078,0.085,0.135c-0.116-0.007-0.231-0.01-0.335-0.002C-43.565,23.766-43.582,23.734-43.597,23.703z"/>
							<path id="path3296" fill="#8F0F13" d="M-43.368,23.57c0.044-0.001,0.088-0.002,0.132,0c0.016,0.02,0.031,0.039,0.046,0.057
								c-0.048-0.001-0.096,0-0.144,0.002C-43.346,23.611-43.357,23.592-43.368,23.57z"/>
							<path id="path3298" fill="#920F13" d="M-43.334,23.629c0.048-0.002,0.097-0.003,0.144-0.002
								c0.015,0.019,0.029,0.038,0.045,0.058c-0.05-0.002-0.102-0.002-0.153-0.001C-43.311,23.666-43.323,23.648-43.334,23.629z"/>
							<path id="path3300" fill="#8A0E12" d="M-43.236,23.57c0.044,0.001,0.088,0.004,0.131,0.008
								c0.019,0.019,0.037,0.038,0.054,0.056c-0.045-0.004-0.091-0.006-0.139-0.007C-43.205,23.608-43.22,23.59-43.236,23.57z"/>
							<path id="path3302" fill="#8E0E13" d="M-43.19,23.627c0.047,0.001,0.094,0.003,0.139,0.007
								c0.018,0.019,0.035,0.038,0.053,0.059c-0.048-0.004-0.097-0.006-0.148-0.008C-43.161,23.665-43.175,23.646-43.19,23.627z"/>
							<path id="path3304" fill="#9A1015" d="M-43.298,23.684c0.102-0.002,0.205,0.001,0.3,0.009
								c0.036,0.041,0.075,0.089,0.121,0.15c-0.104-0.007-0.22-0.018-0.336-0.025C-43.245,23.762-43.273,23.722-43.298,23.684z"/>
							<path id="path3306" fill="#880E12" d="M-43.105,23.578c0.055,0.005,0.113,0.013,0.173,0.024
								c0.019,0.018,0.038,0.035,0.057,0.053c-0.061-0.01-0.12-0.016-0.176-0.021C-43.069,23.615-43.087,23.597-43.105,23.578z"/>
							<path id="path3308" fill="#8B0E12" d="M-43.051,23.634c0.056,0.005,0.115,0.01,0.176,0.021
								c0.019,0.018,0.039,0.037,0.06,0.057c-0.064-0.01-0.123-0.014-0.183-0.019C-43.016,23.672-43.033,23.653-43.051,23.634z"/>
							<path id="path3310" fill="#920F13" d="M-42.998,23.693c0.06,0.005,0.119,0.009,0.183,0.019
								c0.042,0.041,0.087,0.089,0.139,0.152c-0.068-0.009-0.135-0.016-0.201-0.02C-42.923,23.782-42.962,23.734-42.998,23.693z"/>
							<path id="path3312" fill="#8E0E13" d="M-42.932,23.602c0.038,0.036,0.076,0.069,0.117,0.11
								c0.046,0.007,0.092,0.014,0.136,0.021c-0.045-0.04-0.085-0.072-0.123-0.105C-42.845,23.618-42.889,23.609-42.932,23.602z"/>
							<path id="path3314" fill="#910F13" d="M-42.802,23.628c0.043,0.01,0.086,0.021,0.127,0.033
								c0.02,0.014,0.039,0.029,0.06,0.044c-0.042-0.009-0.084-0.018-0.128-0.027C-42.764,23.661-42.783,23.645-42.802,23.628z"/>
							<path id="path3316" fill="#900F13" d="M-42.743,23.678c0.044,0.008,0.087,0.017,0.128,0.027
								c0.021,0.016,0.042,0.033,0.066,0.052c-0.042-0.008-0.085-0.016-0.13-0.023C-42.702,23.713-42.723,23.695-42.743,23.678z"/>
							<path id="path3318" fill="#940F14" d="M-42.815,23.712c0.092,0.014,0.181,0.028,0.266,0.045
								c0.047,0.038,0.101,0.086,0.168,0.153c-0.097-0.018-0.197-0.034-0.295-0.046C-42.728,23.8-42.773,23.753-42.815,23.712z"/>
							<path id="path3320" fill="#930F14" d="M-42.675,23.661c0.041,0.012,0.08,0.024,0.117,0.037
								c0.02,0.012,0.04,0.024,0.062,0.038c-0.038-0.011-0.078-0.021-0.119-0.031C-42.636,23.689-42.656,23.675-42.675,23.661z"/>
							<path id="path3322" fill="#8E0E13" d="M-42.615,23.705c0.041,0.01,0.081,0.02,0.119,0.031
								c0.022,0.014,0.045,0.029,0.07,0.048c-0.04-0.01-0.081-0.019-0.123-0.027C-42.573,23.737-42.595,23.72-42.615,23.705z"/>
							<path id="path3324" fill="#961014" d="M-42.558,23.698c0.037,0.013,0.07,0.026,0.1,0.04c0.02,0.011,0.042,0.022,0.067,0.034
								c-0.032-0.013-0.068-0.025-0.105-0.036C-42.518,23.722-42.538,23.71-42.558,23.698z"/>
							<path id="path3326" fill="#8D0E12" d="M-42.496,23.736c0.038,0.011,0.073,0.023,0.105,0.036
								c0.024,0.012,0.051,0.026,0.08,0.043c-0.037-0.012-0.076-0.022-0.115-0.032C-42.452,23.765-42.475,23.75-42.496,23.736z"/>
							<path id="path3328" fill="#8D0E12" d="M-42.549,23.757c0.047,0.038,0.101,0.086,0.168,0.153
								c0.049,0.009,0.097,0.018,0.144,0.027c-0.078-0.069-0.138-0.117-0.189-0.154C-42.466,23.774-42.507,23.765-42.549,23.757z"/>
							<path id="path3330" fill="#8A0E12" d="M-42.426,23.783c0.051,0.037,0.111,0.084,0.189,0.154
								c0.047,0.009,0.093,0.019,0.137,0.028c-0.083-0.07-0.152-0.116-0.21-0.15C-42.348,23.804-42.386,23.793-42.426,23.783z"/>
							<path id="path3332" fill="#9D1015" d="M-42.458,23.738c0.054,0.023,0.085,0.036,0.106,0.045
								c0.021,0.012,0.038,0.021,0.054,0.03c-0.019-0.009-0.047-0.022-0.093-0.041C-42.415,23.76-42.438,23.749-42.458,23.738z"/>
							<path id="path3334" fill="#910F13" d="M-42.391,23.772c0.046,0.019,0.074,0.032,0.093,0.041
								c0.016,0.009,0.032,0.018,0.049,0.03c-0.015-0.008-0.034-0.016-0.062-0.028C-42.34,23.798-42.367,23.784-42.391,23.772z"/>
							<path id="path3336" fill="#AD1318" d="M-42.352,23.783c0.042,0.024,0.068,0.037,0.104,0.06
								c0.015,0.008,0.025,0.014,0.038,0.021c-0.032-0.023-0.061-0.039-0.106-0.067C-42.324,23.795-42.332,23.792-42.352,23.783z"/>
							<path id="path3338" fill="#8A0E12" d="M-42.311,23.815c0.029,0.012,0.047,0.02,0.062,0.028
								c0.018,0.012,0.037,0.026,0.062,0.045c-0.009-0.004-0.017-0.008-0.028-0.012C-42.25,23.852-42.282,23.832-42.311,23.815z"/>
							<path id="path3340" fill="#880E12" d="M-42.215,23.876c0.011,0.004,0.02,0.008,0.028,0.012
								c0.025,0.02,0.055,0.044,0.092,0.077c-0.002,0-0.003,0-0.006-0.001C-42.142,23.93-42.18,23.901-42.215,23.876z"/>
							<path id="path3342" fill="#971014" d="M-42.249,23.843c0.015,0.008,0.025,0.014,0.038,0.021
								c0.016,0.011,0.033,0.024,0.054,0.041c-0.012-0.007-0.021-0.012-0.03-0.017C-42.211,23.869-42.231,23.855-42.249,23.843z"/>
							<path id="path3344" fill="#910F13" d="M-42.187,23.889c0.008,0.005,0.017,0.01,0.03,0.017
								c0.021,0.017,0.045,0.038,0.075,0.065c-0.007-0.003-0.01-0.004-0.012-0.004C-42.132,23.933-42.162,23.908-42.187,23.889z"/>
							<path id="path3346" fill="#C0151C" d="M-42.316,23.797c0.045,0.028,0.073,0.044,0.106,0.067
								c0.012,0.007,0.027,0.014,0.048,0.024c-0.038-0.027-0.076-0.052-0.124-0.084C-42.303,23.801-42.309,23.8-42.316,23.797z"/>
							<path id="path3348" fill="#D5181F" d="M-42.287,23.804c0.048,0.032,0.087,0.056,0.124,0.084
								c0.022,0.009,0.051,0.021,0.093,0.037c-0.039-0.033-0.081-0.065-0.131-0.098C-42.245,23.814-42.271,23.808-42.287,23.804z"/>
							<path id="path3350" fill="#AD1318" d="M-42.211,23.864c0.012,0.007,0.027,0.014,0.048,0.024
								c0.019,0.014,0.037,0.028,0.057,0.044c-0.023-0.011-0.039-0.02-0.051-0.027C-42.178,23.888-42.195,23.875-42.211,23.864z"/>
							<path id="path3352" fill="#A51217" d="M-42.157,23.905c0.012,0.007,0.029,0.015,0.051,0.027
								c0.02,0.016,0.04,0.034,0.062,0.056c-0.02-0.009-0.031-0.015-0.039-0.018C-42.113,23.943-42.136,23.922-42.157,23.905z"/>
							<path id="path3354" fill="#CA171D" d="M-42.162,23.888c0.022,0.009,0.051,0.021,0.093,0.037
								c0.02,0.016,0.038,0.033,0.057,0.05c-0.04-0.018-0.07-0.032-0.093-0.043C-42.125,23.916-42.143,23.901-42.162,23.888z"/>
							<path id="path3356" fill="#C4161C" d="M-42.106,23.932c0.023,0.011,0.053,0.025,0.093,0.043
								c0.019,0.017,0.037,0.035,0.056,0.054c-0.039-0.019-0.067-0.032-0.087-0.041C-42.066,23.966-42.086,23.948-42.106,23.932z"/>
							<path id="path3358" fill="#ED1C24" d="M-44.875,24.113c-0.039,0.044-0.074,0.089-0.106,0.136
								c0.034,0.002,0.06,0.004,0.079,0.005c0.033-0.044,0.07-0.087,0.109-0.131C-44.814,24.121-44.84,24.118-44.875,24.113z"/>
							<path id="path3360" fill="#D3181F" d="M-44.794,24.124c-0.039,0.044-0.076,0.087-0.109,0.131
								c0.019,0.002,0.032,0.003,0.041,0.003c0.033-0.043,0.069-0.085,0.109-0.128C-44.762,24.129-44.775,24.127-44.794,24.124z"/>
							<path id="path3362" fill="#ED1C24" d="M-44.982,24.249c-0.032,0.047-0.061,0.095-0.086,0.144c0.033,0,0.058,0,0.076,0
								c0.026-0.049,0.056-0.094,0.089-0.138C-44.922,24.253-44.947,24.251-44.982,24.249z"/>
							<path id="path3364" fill="#D61820" d="M-44.903,24.255c-0.033,0.044-0.063,0.09-0.089,0.138c0.018,0,0.031,0,0.04,0
								c0.027-0.048,0.057-0.092,0.09-0.135C-44.871,24.257-44.884,24.256-44.903,24.255z"/>
							<path id="path3366" fill="#C0151C" d="M-44.753,24.13c-0.04,0.043-0.076,0.085-0.109,0.128c0.009,0.001,0.015,0.001,0.02,0
								c0.033-0.043,0.07-0.085,0.11-0.127C-44.738,24.131-44.744,24.131-44.753,24.13z"/>
							<path id="path3368" fill="#B5141A" d="M-44.733,24.13c-0.04,0.042-0.076,0.084-0.11,0.127
								c0.005-0.001,0.009-0.002,0.015-0.005c0.035-0.044,0.073-0.087,0.113-0.129C-44.722,24.127-44.728,24.13-44.733,24.13z"/>
							<path id="path3370" fill="#C5161C" d="M-44.862,24.258c-0.033,0.043-0.063,0.087-0.09,0.135c0.009,0,0.014,0,0.018-0.001
								c0.028-0.047,0.058-0.091,0.091-0.134C-44.848,24.259-44.853,24.259-44.862,24.258z"/>
							<path id="path3372" fill="#BA151B" d="M-44.843,24.258c-0.033,0.043-0.063,0.087-0.091,0.134
								c0.004-0.001,0.007-0.002,0.012-0.004c0.028-0.046,0.06-0.091,0.095-0.135C-44.834,24.256-44.838,24.257-44.843,24.258z"/>
							<path id="path3374" fill="#B11319" d="M-44.714,24.124c0.036-0.015,0.065-0.03,0.094-0.043
								c-0.017,0.021-0.032,0.041-0.046,0.059c-0.035,0.016-0.069,0.032-0.106,0.048C-44.754,24.166-44.734,24.145-44.714,24.124z"
								/>
							<path id="path3376" fill="#B21319" d="M-44.773,24.188c0.037-0.015,0.071-0.032,0.106-0.048
								c-0.014,0.018-0.027,0.036-0.039,0.053c-0.042,0.022-0.083,0.044-0.122,0.06C-44.81,24.231-44.792,24.209-44.773,24.188z"/>
							<path id="path3378" fill="#B7141A" d="M-44.827,24.253c0.039-0.016,0.08-0.038,0.122-0.06
								c-0.024,0.034-0.045,0.067-0.069,0.103c-0.053,0.038-0.105,0.076-0.147,0.092C-44.894,24.342-44.862,24.297-44.827,24.253z"
								/>
							<path id="path3380" fill="#B11319" d="M-44.62,24.081c0.029-0.014,0.059-0.027,0.097-0.039
								c-0.014,0.022-0.025,0.039-0.034,0.054c-0.039,0.013-0.074,0.029-0.109,0.045C-44.653,24.122-44.638,24.102-44.62,24.081z"/>
							<path id="path3382" fill="#B31419" d="M-44.667,24.14c0.035-0.016,0.07-0.032,0.109-0.045
								c-0.009,0.015-0.016,0.027-0.022,0.038c-0.041,0.015-0.084,0.037-0.125,0.06C-44.694,24.176-44.681,24.158-44.667,24.14z"/>
							<path id="path3384" fill="#B8141A" d="M-44.706,24.193c0.042-0.022,0.084-0.044,0.125-0.06
								c-0.013,0.022-0.024,0.041-0.043,0.068c-0.045,0.018-0.099,0.057-0.151,0.095C-44.751,24.26-44.73,24.227-44.706,24.193z"/>
							<path id="path3386" fill="#B11319" d="M-44.524,24.041c0.034-0.011,0.068-0.024,0.104-0.036
								c-0.012,0.02-0.022,0.037-0.031,0.051c-0.036,0.014-0.072,0.028-0.106,0.04C-44.549,24.08-44.538,24.063-44.524,24.041z"/>
							<path id="path3388" fill="#B41419" d="M-44.558,24.095c0.034-0.012,0.07-0.025,0.106-0.04
								c-0.009,0.014-0.017,0.026-0.024,0.037c-0.035,0.014-0.069,0.028-0.105,0.041C-44.574,24.122-44.567,24.11-44.558,24.095z"/>
							<path id="path3390" fill="#B31419" d="M-44.42,24.005c0.035-0.013,0.071-0.026,0.106-0.039
								c-0.007,0.017-0.016,0.032-0.025,0.046c-0.038,0.014-0.076,0.029-0.112,0.043C-44.442,24.041-44.432,24.025-44.42,24.005z"/>
							<path id="path3392" fill="#B6141A" d="M-44.451,24.056c0.037-0.014,0.074-0.029,0.112-0.043
								c-0.009,0.014-0.019,0.026-0.029,0.039c-0.037,0.013-0.072,0.027-0.107,0.041C-44.468,24.081-44.46,24.07-44.451,24.056z"/>
							<path id="path3394" fill="#BA151B" d="M-44.58,24.133c0.071-0.026,0.137-0.056,0.212-0.082
								c-0.02,0.025-0.039,0.049-0.052,0.08c-0.072,0.018-0.128,0.04-0.203,0.07C-44.604,24.174-44.593,24.156-44.58,24.133z"/>
							<path id="path3396" fill="#B9141A" d="M-44.314,23.966c-0.015,0.035-0.035,0.06-0.054,0.085
								c0.037-0.013,0.076-0.026,0.119-0.037c0.019-0.029,0.037-0.056,0.042-0.084C-44.242,23.941-44.278,23.954-44.314,23.966z"/>
							<path id="path3398" fill="#BE151B" d="M-44.206,23.93c-0.005,0.028-0.023,0.056-0.042,0.084
								c0.043-0.011,0.09-0.02,0.142-0.027c0.004-0.031,0.007-0.06,0.007-0.085C-44.135,23.91-44.17,23.919-44.206,23.93z"/>
							<path id="path3400" fill="#C2161C" d="M-44.368,24.051c0.074-0.026,0.157-0.05,0.261-0.064
								c-0.004,0.031-0.009,0.064-0.016,0.1c-0.138,0.013-0.226,0.026-0.298,0.044C-44.407,24.1-44.388,24.076-44.368,24.051z"/>
							<path id="path3402" fill="#C1151C" d="M-44.099,23.902c0.088-0.019,0.178-0.036,0.27-0.051
								c0.008,0.034,0.012,0.067,0.015,0.1c-0.098,0.009-0.195,0.021-0.293,0.036C-44.103,23.956-44.1,23.928-44.099,23.902z"/>
							<path id="path3404" fill="#CA171D" d="M-44.107,23.987c0.097-0.015,0.194-0.027,0.293-0.036
								c0.001,0.017,0.002,0.033,0.002,0.05c-0.099,0.009-0.198,0.021-0.301,0.034C-44.111,24.019-44.109,24.003-44.107,23.987z"/>
							<path id="path3406" fill="#D0181E" d="M-44.114,24.036c0.104-0.013,0.202-0.025,0.301-0.034c0,0.017,0,0.035-0.001,0.053
								c-0.101,0.009-0.202,0.021-0.309,0.032C-44.119,24.07-44.117,24.052-44.114,24.036z"/>
							<path id="path3408" fill="#BD151B" d="M-43.829,23.851c0.092-0.015,0.186-0.026,0.281-0.034
								c0.008,0.022,0.015,0.042,0.02,0.061c-0.097,0.006-0.195,0.014-0.291,0.024C-43.822,23.885-43.825,23.868-43.829,23.851z"/>
							<path id="path3410" fill="#C5161D" d="M-43.82,23.902c0.097-0.01,0.195-0.017,0.291-0.024
								c0.005,0.019,0.01,0.037,0.013,0.055c-0.102,0.004-0.201,0.009-0.299,0.018C-43.815,23.935-43.817,23.918-43.82,23.902z"/>
							<path id="path3412" fill="#D0181E" d="M-43.814,23.951c0.098-0.009,0.198-0.015,0.299-0.018
								c0.004,0.018,0.006,0.035,0.008,0.053c-0.106,0.001-0.206,0.007-0.305,0.016C-43.812,23.985-43.813,23.968-43.814,23.951z"/>
							<path id="path3414" fill="#D91920" d="M-43.812,24.002c0.099-0.009,0.199-0.015,0.305-0.016
								c0.002,0.018,0.004,0.036,0.005,0.055c-0.109,0-0.211,0.005-0.312,0.014C-43.813,24.037-43.812,24.019-43.812,24.002z"/>
							<path id="path3416" fill="#B5141A" d="M-43.548,23.817c0.104-0.008,0.22-0.005,0.335,0.002
								c0.014,0.024,0.024,0.047,0.032,0.067c-0.121-0.01-0.241-0.015-0.347-0.008C-43.534,23.859-43.54,23.839-43.548,23.817z"/>
							<path id="path3418" fill="#C2161C" d="M-43.528,23.878c0.106-0.007,0.227-0.002,0.347,0.008
								c0.008,0.021,0.014,0.04,0.019,0.059c-0.121-0.011-0.242-0.016-0.354-0.012C-43.519,23.915-43.523,23.897-43.528,23.878z"/>
							<path id="path3420" fill="#D1181F" d="M-43.515,23.933c0.056-0.002,0.114-0.002,0.173,0.001
								c0.005,0.019,0.009,0.037,0.013,0.055c-0.06-0.002-0.119-0.003-0.178-0.003C-43.509,23.968-43.511,23.951-43.515,23.933z"/>
							<path id="path3422" fill="#DE1A21" d="M-43.507,23.986c0.059,0,0.118,0.001,0.178,0.003c0.004,0.019,0.006,0.037,0.009,0.057
								c-0.061-0.003-0.121-0.004-0.181-0.005C-43.503,24.022-43.505,24.004-43.507,23.986z"/>
							<path id="path3424" fill="#CE171E" d="M-43.342,23.934c0.059,0.002,0.12,0.006,0.18,0.012
								c0.005,0.019,0.009,0.037,0.013,0.056c-0.06-0.006-0.12-0.01-0.18-0.012C-43.332,23.971-43.337,23.952-43.342,23.934z"/>
							<path id="path3426" fill="#DB1920" d="M-43.329,23.989c0.06,0.003,0.12,0.006,0.18,0.012
								c0.004,0.019,0.007,0.038,0.012,0.058c-0.061-0.006-0.123-0.01-0.184-0.013C-43.323,24.026-43.325,24.008-43.329,23.989z"/>
							<path id="path3428" fill="#AF1319" d="M-43.213,23.819c0.116,0.007,0.232,0.018,0.336,0.025
								c0.038,0.054,0.056,0.102,0.068,0.146c-0.111-0.018-0.231-0.034-0.352-0.044C-43.171,23.908-43.186,23.868-43.213,23.819z"/>
							<path id="path3430" fill="#C8161D" d="M-43.161,23.945c0.121,0.011,0.242,0.027,0.352,0.044
								c0.006,0.022,0.01,0.044,0.016,0.065c-0.115-0.025-0.235-0.042-0.355-0.053C-43.152,23.982-43.156,23.964-43.161,23.945z"/>
							<path id="path3432" fill="#D3181F" d="M-43.149,24.001c0.12,0.011,0.24,0.029,0.355,0.053
								c0.005,0.021,0.01,0.042,0.018,0.063c-0.117-0.028-0.239-0.047-0.361-0.059C-43.141,24.039-43.145,24.02-43.149,24.001z"/>
							<path id="path3434" fill="#A91217" d="M-42.877,23.843c0.033,0.002,0.066,0.005,0.1,0.008
								c0.04,0.053,0.071,0.106,0.097,0.158c-0.043-0.007-0.086-0.013-0.129-0.02C-42.821,23.945-42.839,23.898-42.877,23.843z"/>
							<path id="path3436" fill="#BA151B" d="M-42.809,23.99c0.043,0.007,0.086,0.013,0.129,0.02
								c0.026,0.052,0.047,0.104,0.066,0.154c-0.053-0.017-0.108-0.033-0.161-0.046C-42.791,24.075-42.797,24.034-42.809,23.99z"/>
							<path id="path3438" fill="#A51217" d="M-42.778,23.852c0.079,0.106,0.126,0.211,0.163,0.312
								c0.053,0.017,0.105,0.035,0.15,0.051c-0.044-0.116-0.13-0.248-0.212-0.351C-42.711,23.859-42.744,23.855-42.778,23.852z"/>
							<path id="path3440" fill="#A11116" d="M-42.676,23.863c0.078,0.097,0.159,0.221,0.205,0.332
								c0.13,0.044,0.251,0.084,0.367,0.119c-0.058-0.134-0.162-0.292-0.276-0.405C-42.478,23.892-42.578,23.876-42.676,23.863z"/>
							<path id="path3442" fill="#910F13" d="M-42.381,23.91c0.057,0.056,0.111,0.124,0.159,0.195
								c0.055,0.012,0.11,0.024,0.163,0.035c-0.05-0.072-0.109-0.141-0.178-0.203C-42.285,23.928-42.333,23.919-42.381,23.91z"/>
							<path id="path3444" fill="#8A0E12" d="M-42.238,23.937c0.069,0.061,0.128,0.13,0.178,0.203
								c0.053,0.011,0.105,0.022,0.155,0.031c-0.056-0.073-0.121-0.142-0.196-0.206C-42.145,23.956-42.191,23.946-42.238,23.937z"/>
							<path id="path3446" fill="#991015" d="M-42.222,24.104c0.047,0.07,0.088,0.143,0.117,0.21
								c0.058,0.017,0.115,0.033,0.17,0.047c-0.033-0.074-0.075-0.15-0.125-0.222C-42.112,24.128-42.167,24.117-42.222,24.104z"/>
							<path id="path3448" fill="#900F13" d="M-42.059,24.14c0.05,0.072,0.091,0.148,0.125,0.222
								c0.056,0.014,0.111,0.026,0.167,0.036c-0.035-0.078-0.081-0.154-0.137-0.227C-41.954,24.161-42.006,24.151-42.059,24.14z"/>
							<path id="path3450" fill="#B9141A" d="M-42.472,24.196c0.003,0.006,0.005,0.012,0.007,0.018
								c0.132,0.046,0.253,0.088,0.37,0.124c-0.003-0.008-0.007-0.016-0.01-0.024C-42.221,24.28-42.341,24.239-42.472,24.196z"/>
							<path id="path3452" fill="#A21116" d="M-42.105,24.315c0.003,0.008,0.007,0.016,0.01,0.024
								c0.058,0.018,0.115,0.034,0.171,0.049c-0.004-0.008-0.007-0.017-0.011-0.026C-41.991,24.348-42.047,24.332-42.105,24.315z"/>
							<path id="path3454" fill="#981014" d="M-41.935,24.362c0.004,0.009,0.007,0.017,0.011,0.026
								c0.056,0.014,0.112,0.027,0.168,0.037c-0.004-0.009-0.008-0.018-0.012-0.027C-41.823,24.388-41.879,24.376-41.935,24.362z"/>
							<path id="path3456" fill="#880E12" d="M-42.101,23.965c0.065,0.056,0.123,0.115,0.174,0.178c0.001,0.001,0.001,0,0.001,0.001
								c-0.048-0.06-0.107-0.125-0.169-0.178C-42.096,23.965-42.097,23.965-42.101,23.965z"/>
							<path id="path3458" fill="#8E0E13" d="M-42.094,23.965c0.062,0.054,0.121,0.118,0.169,0.178c0.001,0,0.002,0.001,0.007,0.004
								c-0.042-0.055-0.11-0.128-0.164-0.178C-42.09,23.967-42.093,23.966-42.094,23.965z"/>
							<path id="path3460" fill="#A21116" d="M-42.082,23.97c0.054,0.049,0.122,0.123,0.164,0.178
								c0.005,0.003,0.014,0.007,0.03,0.014c-0.037-0.05-0.109-0.129-0.155-0.174C-42.063,23.978-42.075,23.973-42.082,23.97z"/>
							<path id="path3462" fill="#C1161C" d="M-42.043,23.987c0.047,0.045,0.119,0.125,0.155,0.174
								c0.016,0.007,0.037,0.018,0.069,0.032c-0.034-0.047-0.094-0.123-0.137-0.166C-41.996,24.01-42.024,23.997-42.043,23.987z"/>
							<path id="path3464" fill="#8B0E12" d="M-41.927,24.143c0.066,0.081,0.119,0.167,0.159,0.255c0,0-0.001-0.001-0.001-0.001
								c-0.039-0.087-0.093-0.174-0.157-0.253C-41.926,24.143-41.925,24.143-41.927,24.143z"/>
							<path id="path3466" fill="#920F13" d="M-41.925,24.144c0.063,0.079,0.118,0.166,0.157,0.253c0,0,0.001,0,0.005,0.002
								c-0.037-0.086-0.097-0.176-0.155-0.251C-41.923,24.145-41.925,24.144-41.925,24.144z"/>
							<path id="path3468" fill="#A41117" d="M-41.918,24.147c0.058,0.075,0.118,0.165,0.155,0.251
								c0.004,0.001,0.011,0.004,0.022,0.008c-0.035-0.085-0.095-0.174-0.147-0.245C-41.904,24.154-41.913,24.15-41.918,24.147z"/>
							<path id="path3470" fill="#C3161C" d="M-41.888,24.162c0.052,0.07,0.112,0.16,0.147,0.245
								c0.011,0.004,0.027,0.011,0.049,0.019c-0.034-0.084-0.078-0.163-0.128-0.232C-41.851,24.179-41.873,24.169-41.888,24.162z"/>
							<path id="path3472" fill="#930F14" d="M-41.768,24.398c0.004,0.009,0.008,0.018,0.012,0.027c0,0-0.001-0.001-0.001-0.001
								C-41.761,24.415-41.765,24.406-41.768,24.398C-41.769,24.397-41.768,24.398-41.768,24.398z"/>
							<path id="path3474" fill="#9A1015" d="M-41.769,24.397c0.004,0.009,0.008,0.018,0.012,0.027c0,0,0.002,0,0.005,0.001
								c-0.003-0.009-0.008-0.018-0.012-0.027C-41.767,24.397-41.768,24.397-41.769,24.397z"/>
							<path id="path3476" fill="#AA1218" d="M-41.763,24.399c0.004,0.009,0.008,0.018,0.012,0.027
								c0.004,0.001,0.011,0.004,0.022,0.008c-0.003-0.009-0.008-0.018-0.011-0.026C-41.753,24.402-41.759,24.4-41.763,24.399z"/>
							<path id="path3478" fill="#C6161D" d="M-41.741,24.407c0.003,0.008,0.008,0.018,0.011,0.026
								c0.011,0.004,0.026,0.01,0.047,0.018c-0.003-0.008-0.006-0.017-0.01-0.025C-41.714,24.417-41.73,24.411-41.741,24.407z"/>
							<path id="path3480" fill="#ED1C24" d="M-45.068,24.393c-0.022,0.042-0.041,0.086-0.058,0.129
								c0.032-0.002,0.056-0.003,0.075-0.004c0.017-0.043,0.037-0.084,0.06-0.126C-45.01,24.393-45.035,24.393-45.068,24.393z"/>
							<path id="path3482" fill="#DA1920" d="M-44.992,24.393c-0.022,0.042-0.043,0.082-0.06,0.126
								c0.018-0.001,0.031-0.002,0.039-0.002c0.018-0.043,0.037-0.082,0.06-0.123C-44.961,24.393-44.974,24.393-44.992,24.393z"/>
							<path id="path3484" fill="#CC171E" d="M-44.952,24.393c-0.023,0.041-0.042,0.081-0.06,0.123
								c0.009-0.001,0.014-0.001,0.017-0.002c0.018-0.042,0.037-0.082,0.061-0.122C-44.938,24.393-44.943,24.393-44.952,24.393z"/>
							<path id="path3486" fill="#C4161C" d="M-44.934,24.392c-0.024,0.04-0.043,0.081-0.061,0.122
								c0.004-0.001,0.006-0.002,0.008-0.004c0.018-0.041,0.04-0.082,0.064-0.122C-44.926,24.39-44.93,24.391-44.934,24.392z"/>
							<path id="path3488" fill="#ED1C24" d="M-45.126,24.522c-0.01,0.027-0.02,0.054-0.028,0.082
								c0.032-0.002,0.056-0.004,0.074-0.006c0.009-0.027,0.019-0.053,0.029-0.079C-45.07,24.52-45.094,24.521-45.126,24.522z"/>
							<path id="path3490" fill="#DD1921" d="M-45.052,24.519c-0.01,0.027-0.02,0.052-0.029,0.079
								c0.018-0.001,0.031-0.003,0.04-0.003c0.009-0.027,0.018-0.052,0.029-0.078C-45.021,24.517-45.033,24.518-45.052,24.519z"/>
							<path id="path3492" fill="#D2181F" d="M-45.012,24.516c-0.011,0.026-0.02,0.051-0.029,0.078
								c0.009-0.001,0.014-0.002,0.017-0.003c0.009-0.026,0.018-0.052,0.029-0.078C-44.998,24.515-45.004,24.516-45.012,24.516z"/>
							<path id="path3494" fill="#CB171E" d="M-44.995,24.514c-0.011,0.026-0.02,0.051-0.029,0.078
								c0.003-0.001,0.005-0.002,0.007-0.004c0.009-0.026,0.019-0.052,0.031-0.078C-44.989,24.512-44.991,24.513-44.995,24.514z"/>
							<path id="path3496" fill="#C1151C" d="M-44.922,24.388c-0.039,0.064-0.071,0.131-0.095,0.2
								c0.06-0.052,0.099-0.092,0.143-0.126c0.023-0.07,0.066-0.115,0.099-0.166C-44.828,24.334-44.88,24.372-44.922,24.388z"/>
							<path id="path3498" fill="#C4161C" d="M-44.775,24.296c-0.033,0.051-0.077,0.096-0.099,0.166
								c0.043-0.033,0.09-0.06,0.165-0.084c0.022-0.072,0.059-0.139,0.086-0.177C-44.668,24.219-44.722,24.258-44.775,24.296z"/>
							<path id="path3500" fill="#C9171D" d="M-44.624,24.201c-0.028,0.038-0.064,0.105-0.086,0.177
								c0.085-0.027,0.151-0.045,0.23-0.058c0.02-0.082,0.042-0.145,0.06-0.189C-44.492,24.149-44.549,24.171-44.624,24.201z"/>
							<path id="path3502" fill="#CE171E" d="M-44.42,24.131c-0.018,0.044-0.04,0.107-0.06,0.189
								c0.079-0.013,0.169-0.022,0.302-0.031c0.018-0.092,0.047-0.153,0.055-0.202C-44.26,24.1-44.348,24.114-44.42,24.131z"/>
							<path id="path3504" fill="#D5181F" d="M-44.123,24.087c-0.009,0.049-0.038,0.111-0.055,0.202
								c0.118-0.008,0.236-0.012,0.354-0.013c0.01-0.097,0.008-0.17,0.011-0.222C-43.915,24.064-44.016,24.076-44.123,24.087z"/>
							<path id="path3506" fill="#DE1A21" d="M-43.813,24.055c-0.002,0.051-0.001,0.125-0.011,0.222
								c0.118-0.001,0.235,0.001,0.352,0.006c0.002-0.101-0.026-0.189-0.03-0.242C-43.61,24.041-43.712,24.046-43.813,24.055z"/>
							<path id="path3508" fill="#E41A22" d="M-43.501,24.041c0.004,0.053,0.032,0.141,0.03,0.242
								c0.064,0.003,0.129,0.006,0.193,0.011c-0.001-0.103-0.035-0.194-0.041-0.249C-43.381,24.043-43.442,24.041-43.501,24.041z"/>
							<path id="path3510" fill="#E11A21" d="M-43.32,24.046c0.007,0.054,0.04,0.146,0.041,0.249
								c0.064,0.005,0.128,0.01,0.192,0.017c-0.007-0.107-0.037-0.196-0.05-0.252C-43.198,24.053-43.259,24.048-43.32,24.046z"/>
							<path id="path3512" fill="#DA1920" d="M-43.137,24.059c0.013,0.056,0.043,0.145,0.05,0.252
								c0.128,0.013,0.256,0.029,0.384,0.049c-0.016-0.112-0.052-0.183-0.074-0.242C-42.893,24.09-43.014,24.071-43.137,24.059z"/>
							<path id="path3514" fill="#C9171D" d="M-42.776,24.118c0.021,0.059,0.057,0.13,0.074,0.242
								c0.066,0.01,0.118,0.032,0.165,0.056c-0.015-0.112-0.054-0.188-0.078-0.252C-42.668,24.147-42.723,24.13-42.776,24.118z"/>
							<path id="path3516" fill="#C2161C" d="M-42.615,24.164c0.024,0.064,0.063,0.14,0.078,0.252
								c0.047,0.024,0.09,0.051,0.139,0.071c-0.013-0.112-0.04-0.203-0.066-0.273C-42.51,24.198-42.561,24.181-42.615,24.164z"/>
							<path id="path3518" fill="#BB151B" d="M-42.464,24.214c0.026,0.07,0.053,0.161,0.066,0.273
								c0.142,0.059,0.264,0.123,0.38,0.178c-0.006-0.112-0.038-0.231-0.077-0.327C-42.211,24.302-42.333,24.26-42.464,24.214z"/>
							<path id="path3520" fill="#A21116" d="M-42.095,24.338c0.019,0.048,0.037,0.102,0.05,0.157
								c0.06,0.025,0.118,0.048,0.176,0.068c-0.013-0.06-0.031-0.119-0.055-0.176C-41.98,24.373-42.037,24.356-42.095,24.338z"/>
							<path id="path3522" fill="#981014" d="M-41.924,24.387c0.024,0.057,0.042,0.117,0.055,0.176
								c0.058,0.02,0.114,0.036,0.171,0.047c-0.013-0.062-0.032-0.125-0.058-0.186C-41.812,24.414-41.868,24.402-41.924,24.387z"/>
							<path id="path3524" fill="#A81217" d="M-42.044,24.496c0.014,0.056,0.023,0.113,0.026,0.169
								c0.058,0.028,0.114,0.053,0.17,0.074c0-0.056-0.007-0.116-0.02-0.176C-41.926,24.544-41.985,24.521-42.044,24.496z"/>
							<path id="path3526" fill="#9E1115" d="M-41.869,24.564c0.013,0.06,0.02,0.119,0.02,0.176c0.056,0.021,0.112,0.038,0.168,0.05
								c0.001-0.056-0.005-0.117-0.018-0.179C-41.755,24.599-41.811,24.583-41.869,24.564z"/>
							<path id="path3528" fill="#940F14" d="M-41.756,24.424c0.026,0.061,0.045,0.124,0.058,0.186c0,0,0-0.001,0.001-0.001
								C-41.712,24.547-41.732,24.484-41.756,24.424C-41.757,24.424-41.756,24.424-41.756,24.424z"/>
							<path id="path3530" fill="#9A1015" d="M-41.757,24.424c0.025,0.06,0.045,0.123,0.059,0.185
								c0.001-0.001,0.003-0.001,0.007-0.001c-0.016-0.062-0.038-0.125-0.061-0.183C-41.755,24.424-41.757,24.424-41.757,24.424z"/>
							<path id="path3532" fill="#9A1015" d="M-41.698,24.61c0.013,0.062,0.019,0.122,0.018,0.179c0,0,0.001,0,0.003,0
								c0.001-0.057-0.007-0.118-0.021-0.18C-41.698,24.609-41.698,24.61-41.698,24.61z"/>
							<path id="path3534" fill="#9E1116" d="M-41.697,24.609c0.014,0.062,0.022,0.123,0.021,0.18c0.002,0,0.006,0.001,0.011,0.002
								c0.001-0.057-0.009-0.12-0.024-0.182C-41.695,24.608-41.696,24.608-41.697,24.609z"/>
							<path id="path3536" fill="#AA1218" d="M-41.751,24.425c0.046,0.116,0.088,0.251,0.085,0.365
								c0.005,0.001,0.011,0.002,0.018,0.002c0.003-0.116-0.039-0.248-0.082-0.36C-41.741,24.429-41.748,24.426-41.751,24.425z"/>
							<path id="path3538" fill="#C6161D" d="M-41.73,24.433c0.042,0.112,0.085,0.244,0.082,0.36
								c0.007,0.001,0.016,0.002,0.027,0.002c0.003-0.116-0.02-0.234-0.061-0.344C-41.704,24.443-41.719,24.437-41.73,24.433z"/>
							<path id="path3540" fill="#ED1C24" d="M-45.155,24.604c-0.008,0.026-0.015,0.052-0.021,0.078
								c0.031-0.003,0.055-0.006,0.073-0.009c0.006-0.026,0.014-0.05,0.022-0.076C-45.099,24.6-45.123,24.601-45.155,24.604z"/>
							<path id="path3542" fill="#E01A21" d="M-45.08,24.598c-0.008,0.026-0.016,0.049-0.022,0.076
								c0.018-0.002,0.031-0.004,0.04-0.006c0.006-0.026,0.014-0.048,0.022-0.073C-45.05,24.596-45.062,24.597-45.08,24.598z"/>
							<path id="path3544" fill="#D5181F" d="M-45.041,24.595c-0.008,0.025-0.016,0.048-0.022,0.073
								c0.009-0.001,0.014-0.002,0.017-0.003c0.006-0.025,0.014-0.048,0.022-0.073C-45.027,24.593-45.032,24.594-45.041,24.595z"/>
							<path id="path3546" fill="#CF171E" d="M-45.024,24.592c-0.008,0.025-0.016,0.048-0.022,0.073
								c0.003-0.001,0.005-0.002,0.007-0.002c0.006-0.025,0.013-0.05,0.022-0.075C-45.019,24.589-45.02,24.591-45.024,24.592z"/>
							<path id="path3548" fill="#CD171E" d="M-45.017,24.588c-0.004,0.012-0.008,0.025-0.012,0.037
								c0.027-0.017,0.051-0.032,0.075-0.045c0.005-0.025,0.011-0.049,0.015-0.062C-44.962,24.539-44.987,24.562-45.017,24.588z"/>
							<path id="path3550" fill="#CE171E" d="M-44.939,24.518c-0.004,0.012-0.01,0.037-0.015,0.062
								c0.023-0.014,0.046-0.026,0.069-0.037c0.003-0.034,0.007-0.068,0.011-0.081C-44.896,24.479-44.917,24.497-44.939,24.518z"/>
							<path id="path3552" fill="#CF171E" d="M-45.029,24.625c-0.004,0.012-0.007,0.025-0.01,0.038
								c0.024-0.007,0.048-0.014,0.072-0.021c0.003-0.013,0.008-0.038,0.013-0.062C-44.977,24.593-45.002,24.608-45.029,24.625z"/>
							<path id="path3554" fill="#D2181F" d="M-44.954,24.58c-0.005,0.025-0.01,0.049-0.013,0.062
								c0.024-0.006,0.048-0.012,0.073-0.017c0.003-0.013,0.006-0.047,0.009-0.081C-44.908,24.554-44.931,24.566-44.954,24.58z"/>
							<path id="path3556" fill="#D1181F" d="M-44.874,24.462c-0.004,0.013-0.008,0.047-0.011,0.081
								c0.023-0.011,0.047-0.021,0.072-0.03c0.002-0.042,0.005-0.084,0.009-0.097C-44.83,24.431-44.853,24.446-44.874,24.462z"/>
							<path id="path3558" fill="#D5181F" d="M-44.804,24.417c0.026-0.014,0.057-0.026,0.094-0.038
								c-0.002,0.007-0.005,0.022-0.008,0.042c-0.035,0.011-0.065,0.022-0.091,0.034C-44.807,24.437-44.806,24.423-44.804,24.417z"
								/>
							<path id="path3560" fill="#D91920" d="M-44.809,24.454c0.026-0.012,0.056-0.023,0.091-0.034
								c-0.003,0.02-0.007,0.044-0.01,0.068c-0.031,0.008-0.059,0.016-0.085,0.025C-44.812,24.492-44.81,24.472-44.809,24.454z"/>
							<path id="path3562" fill="#D91920" d="M-44.885,24.543c0.023-0.011,0.047-0.021,0.072-0.03
								c-0.001,0.021-0.002,0.042-0.004,0.059c-0.025,0.006-0.049,0.012-0.073,0.019C-44.888,24.577-44.887,24.56-44.885,24.543z"/>
							<path id="path3564" fill="#DD1921" d="M-44.89,24.592c0.024-0.007,0.048-0.014,0.073-0.019
								c-0.001,0.017-0.002,0.031-0.004,0.038c-0.025,0.004-0.049,0.009-0.074,0.014C-44.893,24.618-44.891,24.606-44.89,24.592z"/>
							<path id="path3566" fill="#E11A21" d="M-44.813,24.514c0.026-0.009,0.053-0.017,0.085-0.025
								c-0.004,0.024-0.007,0.048-0.01,0.068c-0.027,0.005-0.053,0.01-0.078,0.016C-44.815,24.555-44.814,24.534-44.813,24.514z"/>
							<path id="path3568" fill="#E61B22" d="M-44.816,24.573c0.025-0.006,0.051-0.011,0.078-0.016
								c-0.003,0.02-0.005,0.035-0.007,0.042c-0.025,0.003-0.05,0.007-0.075,0.012C-44.819,24.604-44.818,24.59-44.816,24.573z"/>
							<path id="path3570" fill="#D91920" d="M-44.71,24.379c0.085-0.027,0.151-0.045,0.23-0.058
								c-0.002,0.007-0.002,0.025-0.001,0.048c-0.081,0.011-0.152,0.027-0.237,0.052C-44.715,24.401-44.712,24.385-44.71,24.379z"/>
							<path id="path3572" fill="#DD1921" d="M-44.718,24.42c0.085-0.025,0.156-0.041,0.237-0.052
								c0.001,0.023,0.003,0.052,0.005,0.08c-0.086,0.008-0.165,0.02-0.252,0.04C-44.725,24.464-44.721,24.44-44.718,24.42z"/>
							<path id="path3574" fill="#E51A22" d="M-44.728,24.489c0.087-0.02,0.167-0.032,0.252-0.04
								c0.002,0.029,0.004,0.057,0.005,0.08c-0.09,0.005-0.178,0.013-0.267,0.028C-44.735,24.537-44.732,24.513-44.728,24.489z"/>
							<path id="path3576" fill="#EB1B23" d="M-44.738,24.557c0.089-0.015,0.177-0.023,0.267-0.028c0.001,0.023,0.001,0.041,0,0.047
								c-0.092,0.003-0.184,0.01-0.274,0.022C-44.744,24.592-44.741,24.577-44.738,24.557z"/>
							<path id="path3578" fill="#E11A21" d="M-44.48,24.321c0.079-0.013,0.169-0.022,0.302-0.031
								c-0.003,0.014-0.006,0.079-0.009,0.144c-0.112,0.003-0.204,0.007-0.289,0.015C-44.48,24.392-44.484,24.334-44.48,24.321z"/>
							<path id="path3580" fill="#E81B23" d="M-44.476,24.449c0.085-0.008,0.177-0.012,0.289-0.015
								c-0.003,0.065-0.006,0.129-0.009,0.143c-0.091-0.003-0.183-0.004-0.275-0.001C-44.468,24.563-44.472,24.506-44.476,24.449z"
								/>
							<path id="path3582" fill="#E41A22" d="M-44.178,24.29c0.237-0.016,0.472-0.017,0.706-0.007c0,0.016,0,0.094-0.001,0.172
								c-0.236-0.017-0.476-0.025-0.715-0.021C-44.184,24.369-44.181,24.304-44.178,24.29z"/>
							<path id="path3584" fill="#E91B23" d="M-44.187,24.434c0.239-0.004,0.478,0.004,0.715,0.021
								c-0.001,0.077-0.002,0.155-0.005,0.17c-0.238-0.024-0.478-0.039-0.718-0.047C-44.193,24.563-44.19,24.499-44.187,24.434z"/>
							<path id="path3586" fill="#E11A22" d="M-43.472,24.283c0,0.033,0,0.311-0.006,0.342c0.131,0.013,0.261,0.028,0.391,0.046
								c0.006-0.033,0.003-0.324,0-0.36C-43.215,24.298-43.343,24.289-43.472,24.283z"/>
							<path id="path3588" fill="#E11A22" d="M-43.087,24.311c0.003,0.035,0.006,0.327,0,0.36c0.13,0.018,0.259,0.038,0.387,0.06
								c0.006-0.034,0.002-0.333-0.003-0.371C-42.83,24.34-42.958,24.324-43.087,24.311z"/>
							<path id="path3590" fill="#E01A21" d="M-42.702,24.36c0.005,0.038,0.009,0.337,0.003,0.371
								c0.064,0.011,0.116,0.019,0.164,0.027c0.006-0.034,0.003-0.304-0.002-0.342C-42.584,24.391-42.636,24.37-42.702,24.36z"/>
							<path id="path3592" fill="#D71920" d="M-42.537,24.416c0.005,0.038,0.008,0.308,0.002,0.342
								c0.048,0.008,0.094,0.015,0.147,0.024c0.006-0.035-0.005-0.257-0.01-0.295C-42.447,24.467-42.49,24.44-42.537,24.416z"/>
							<path id="path3594" fill="#CB171E" d="M-42.398,24.487c0.004,0.038,0.016,0.26,0.01,0.295
								c0.152,0.026,0.29,0.051,0.408,0.072c0.005-0.036-0.036-0.15-0.038-0.189C-42.134,24.61-42.256,24.546-42.398,24.487z"/>
							<path id="path3596" fill="#AD1318" d="M-42.018,24.665c0.002,0.039,0.043,0.153,0.038,0.189
								c0.059,0.011,0.113,0.021,0.162,0.03c0.004-0.037-0.03-0.105-0.031-0.145C-41.905,24.718-41.961,24.693-42.018,24.665z"/>
							<path id="path3598" fill="#A11116" d="M-41.849,24.739c0,0.04,0.035,0.108,0.031,0.145c0.049,0.009,0.091,0.017,0.128,0.024
								c0.004-0.038,0.01-0.079,0.01-0.12C-41.737,24.777-41.793,24.76-41.849,24.739z"/>
							<path id="path3600" fill="#9D1015" d="M-41.68,24.789c0,0.04-0.006,0.082-0.01,0.12c0.001,0,0.003,0,0.006,0.001
								c0.004-0.038,0.007-0.08,0.008-0.12C-41.679,24.788-41.68,24.788-41.68,24.789z"/>
							<path id="path3602" fill="#A21116" d="M-41.677,24.789c-0.001,0.04-0.004,0.082-0.008,0.12c0.003,0,0.007,0.001,0.013,0.002
								c0.004-0.038,0.005-0.081,0.006-0.12C-41.671,24.79-41.675,24.789-41.677,24.789z"/>
							<path id="path3604" fill="#B11319" d="M-41.666,24.79c-0.001,0.04-0.001,0.082-0.006,0.12
								c0.005,0.001,0.012,0.002,0.019,0.003c0.005-0.039,0.004-0.081,0.005-0.121C-41.656,24.792-41.662,24.791-41.666,24.79z"/>
							<path id="path3606" fill="#CA171D" d="M-41.648,24.793c-0.001,0.039,0,0.082-0.005,0.121
								c0.007,0.001,0.015,0.003,0.025,0.005c0.005-0.039,0.006-0.085,0.007-0.124C-41.632,24.794-41.641,24.794-41.648,24.793z"/>
							<path id="path3608" fill="#ED1C24" d="M-45.176,24.682c-0.009,0.037-0.016,0.075-0.022,0.114
								c0.029-0.003,0.051-0.006,0.069-0.009c0.006-0.038,0.018-0.076,0.026-0.113C-45.121,24.676-45.145,24.679-45.176,24.682z"/>
							<path id="path3610" fill="#E11A22" d="M-45.103,24.674c-0.009,0.037-0.021,0.075-0.026,0.113
								c0.017-0.002,0.03-0.004,0.039-0.006c0.006-0.038,0.018-0.076,0.027-0.113C-45.072,24.67-45.084,24.671-45.103,24.674z"/>
							<path id="path3612" fill="#D91920" d="M-45.063,24.668c-0.009,0.037-0.021,0.075-0.027,0.113
								c0.018-0.003,0.023-0.005,0.029-0.007c0.006-0.038,0.014-0.075,0.022-0.111C-45.042,24.664-45.045,24.665-45.063,24.668z"/>
							<path id="path3614" fill="#ED1C24" d="M-45.198,24.796c-0.008,0.06-0.013,0.121-0.013,0.182
								c0.025-0.003,0.044-0.005,0.06-0.007c0-0.061,0.013-0.123,0.022-0.183C-45.146,24.789-45.169,24.792-45.198,24.796z"/>
							<path id="path3616" fill="#E41A22" d="M-45.129,24.787c-0.009,0.06-0.021,0.122-0.022,0.183
								c0.016-0.002,0.027-0.003,0.036-0.005c0.002-0.062,0.015-0.124,0.024-0.184C-45.099,24.783-45.112,24.785-45.129,24.787z"/>
							<path id="path3618" fill="#DD1921" d="M-45.09,24.781c-0.009,0.06-0.023,0.122-0.024,0.184
								c0.018-0.003,0.026-0.004,0.034-0.006c0.003-0.063,0.01-0.125,0.02-0.185C-45.067,24.776-45.072,24.778-45.09,24.781z"/>
							<path id="path3620" fill="#ED1C24" d="M-45.211,24.977c0.001,0.023,0.001,0.047,0.002,0.071
								c0.046-0.005,0.073-0.008,0.091-0.01c0-0.024,0.003-0.049,0.003-0.073C-45.133,24.968-45.161,24.971-45.211,24.977z"/>
							<path id="path3622" fill="#E81B23" d="M-45.115,24.965c0,0.024-0.004,0.048-0.003,0.073c0.018-0.002,0.026-0.004,0.035-0.005
								c0-0.025,0.001-0.049,0.002-0.074C-45.089,24.961-45.097,24.962-45.115,24.965z"/>
							<path id="path3624" fill="#ED1C24" d="M-45.209,25.048c0.092-0.01,0.108-0.012,0.126-0.016c0,0.01,0,0.019,0,0.029
								c-0.019,0.002-0.036,0.003-0.125,0.012C-45.207,25.075-45.209,25.048-45.209,25.048z"/>
							<path id="path3626" fill="#ED1C24" d="M-45.207,25.073c0.089-0.009,0.106-0.009,0.125-0.012c0,0.03,0.001,0.061,0.003,0.091
								c-0.02,0.002-0.039,0.001-0.119,0.008C-45.202,25.131-45.205,25.102-45.207,25.073z"/>
							<path id="path3628" fill="#D1181F" d="M-45.039,24.663c-0.018,0.076-0.031,0.157-0.038,0.239
								c0.024-0.004,0.048-0.008,0.072-0.012c0.007-0.086,0.019-0.171,0.038-0.248C-44.991,24.648-45.015,24.655-45.039,24.663z"/>
							<path id="path3630" fill="#D5181F" d="M-44.967,24.642c-0.018,0.077-0.031,0.162-0.038,0.248
								c0.024-0.003,0.049-0.006,0.073-0.009c0.007-0.089,0.019-0.177,0.037-0.256C-44.919,24.63-44.943,24.636-44.967,24.642z"/>
							<path id="path3632" fill="#E31A22" d="M-45.077,24.902c0.047-0.009,0.096-0.016,0.145-0.021
								c-0.003,0.045-0.005,0.09-0.006,0.135c-0.049,0.003-0.098,0.007-0.145,0.011C-45.082,24.985-45.08,24.943-45.077,24.902z"/>
							<path id="path3634" fill="#EA1B23" d="M-45.082,25.027c0.047-0.005,0.096-0.009,0.145-0.011
								c-0.001,0.045,0,0.089,0.001,0.132c-0.048,0.001-0.095,0.003-0.143,0.006C-45.082,25.111-45.083,25.069-45.082,25.027z"/>
							<path id="path3636" fill="#E01A21" d="M-44.894,24.625c-0.018,0.079-0.03,0.167-0.037,0.256
								c0.025-0.003,0.049-0.005,0.074-0.007c0.007-0.092,0.019-0.183,0.037-0.263C-44.845,24.615-44.87,24.619-44.894,24.625z"/>
							<path id="path3638" fill="#E91B23" d="M-44.82,24.61c-0.018,0.081-0.03,0.171-0.037,0.263
								c0.025-0.002,0.049-0.004,0.074-0.005c0.008-0.095,0.02-0.188,0.038-0.27C-44.77,24.602-44.795,24.606-44.82,24.61z"/>
							<path id="path3640" fill="#E91B23" d="M-44.931,24.881c0.049-0.005,0.099-0.009,0.148-0.012
								c-0.008,0.095-0.01,0.191-0.01,0.279c-0.048-0.001-0.096,0-0.143,0C-44.939,25.061-44.938,24.97-44.931,24.881z"/>
							<path id="path3642" fill="#ED1C24" d="M-44.745,24.598c0.181-0.025,0.367-0.027,0.549-0.021
								c-0.035,0.188-0.061,0.402-0.082,0.594c-0.17-0.011-0.343-0.022-0.515-0.024C-44.794,24.972-44.781,24.762-44.745,24.598z"/>
							<path id="path3644" fill="#ED1C24" d="M-44.196,24.577c-0.035,0.188-0.061,0.402-0.082,0.594
								c0.109,0.007,0.217,0.016,0.325,0.025c0.043-0.19,0.083-0.409,0.118-0.601C-43.956,24.587-44.076,24.581-44.196,24.577z"/>
							<path id="path3646" fill="#EB1B23" d="M-43.836,24.595c-0.035,0.193-0.075,0.412-0.118,0.601
								c0.108,0.01,0.215,0.021,0.322,0.033c0.064-0.187,0.119-0.408,0.154-0.605C-43.597,24.613-43.716,24.603-43.836,24.595z"/>
							<path id="path3648" fill="#E81B23" d="M-43.478,24.625c-0.035,0.196-0.091,0.417-0.154,0.605
								c0.117,0.013,0.234,0.028,0.351,0.045c0.088-0.185,0.159-0.402,0.194-0.603C-43.216,24.653-43.347,24.638-43.478,24.625z"/>
							<path id="path3650" fill="#E61B22" d="M-43.087,24.671c0.13,0.018,0.259,0.038,0.387,0.06
								c-0.018,0.103-0.047,0.206-0.087,0.307c-0.123-0.021-0.25-0.041-0.378-0.06C-43.131,24.876-43.104,24.771-43.087,24.671z"/>
							<path id="path3652" fill="#E51B22" d="M-43.164,24.978c0.128,0.018,0.255,0.039,0.378,0.06
								c-0.039,0.101-0.088,0.199-0.145,0.29c-0.117-0.02-0.234-0.038-0.351-0.054C-43.237,25.181-43.197,25.081-43.164,24.978z"/>
							<path id="path3654" fill="#E41A22" d="M-42.699,24.731c-0.018,0.106-0.049,0.213-0.09,0.317
								c0.051,0.009,0.097,0.017,0.143,0.026c0.037-0.106,0.094-0.208,0.112-0.315C-42.583,24.75-42.635,24.742-42.699,24.731z"/>
							<path id="path3656" fill="#DD1921" d="M-42.535,24.758c-0.018,0.108-0.074,0.209-0.112,0.315
								c0.045,0.008,0.09,0.017,0.138,0.027c0.034-0.109,0.103-0.209,0.121-0.318C-42.441,24.773-42.486,24.765-42.535,24.758z"/>
							<path id="path3658" fill="#E11A21" d="M-42.789,25.048c-0.039,0.097-0.086,0.192-0.141,0.28
								c0.036,0.006,0.075,0.013,0.114,0.021c0.057-0.088,0.135-0.177,0.17-0.276C-42.692,25.065-42.738,25.057-42.789,25.048z"/>
							<path id="path3660" fill="#D91920" d="M-42.647,25.073c-0.035,0.099-0.112,0.188-0.17,0.276
								c0.039,0.008,0.08,0.017,0.121,0.026c0.06-0.088,0.155-0.174,0.187-0.275C-42.557,25.09-42.601,25.082-42.647,25.073z"/>
							<path id="path3662" fill="#D1181F" d="M-42.388,24.782c-0.018,0.11-0.087,0.209-0.121,0.318
								c0.139,0.028,0.275,0.058,0.398,0.087c0.045-0.113,0.115-0.215,0.131-0.333C-42.098,24.832-42.237,24.808-42.388,24.782z"/>
							<path id="path3664" fill="#AF1319" d="M-41.98,24.854c-0.015,0.118-0.086,0.22-0.131,0.333
								c0.061,0.015,0.12,0.03,0.174,0.044c0.052-0.116,0.105-0.224,0.119-0.347C-41.867,24.875-41.921,24.865-41.98,24.854z"/>
							<path id="path3666" fill="#A21116" d="M-41.818,24.884c-0.014,0.123-0.067,0.231-0.119,0.347
								c0.054,0.014,0.104,0.028,0.148,0.042c0.056-0.118,0.086-0.238,0.099-0.364C-41.727,24.901-41.77,24.893-41.818,24.884z"/>
							<path id="path3668" fill="#CF171E" d="M-42.509,25.1c-0.031,0.101-0.127,0.187-0.187,0.275
								c0.119,0.027,0.244,0.059,0.362,0.094c0.074-0.087,0.182-0.18,0.222-0.282C-42.234,25.157-42.369,25.128-42.509,25.1z"/>
							<path id="path3670" fill="#AF1319" d="M-42.111,25.187c-0.04,0.102-0.148,0.195-0.222,0.282
								c0.059,0.018,0.117,0.036,0.172,0.054c0.084-0.086,0.177-0.188,0.224-0.292C-41.991,25.216-42.049,25.202-42.111,25.187z"/>
							<path id="path3672" fill="#A21116" d="M-41.937,25.231c-0.047,0.104-0.14,0.206-0.224,0.292
								c0.055,0.018,0.106,0.037,0.153,0.055c0.089-0.086,0.169-0.201,0.218-0.305C-41.834,25.259-41.883,25.245-41.937,25.231z"/>
							<path id="path3674" fill="#9D1015" d="M-41.69,24.908c-0.01,0.093-0.029,0.184-0.061,0.272
								c0.002,0.001,0.004,0.001,0.007,0.002c0.032-0.088,0.05-0.18,0.06-0.273C-41.688,24.909-41.69,24.908-41.69,24.908z"/>
							<path id="path3676" fill="#A21116" d="M-41.685,24.909c-0.01,0.093-0.028,0.185-0.06,0.273c0.003,0,0.006,0.001,0.01,0.002
								c0.033-0.086,0.052-0.18,0.062-0.274C-41.677,24.91-41.682,24.909-41.685,24.909z"/>
							<path id="path3678" fill="#B11319" d="M-41.672,24.911c-0.011,0.093-0.029,0.187-0.062,0.274
								c0.004,0.001,0.01,0.002,0.016,0.003c0.034-0.085,0.054-0.18,0.065-0.274C-41.66,24.912-41.667,24.911-41.672,24.911z"/>
							<path id="path3680" fill="#CA171D" d="M-41.653,24.914c-0.011,0.094-0.031,0.189-0.065,0.274
								c0.007,0.001,0.015,0.003,0.024,0.005c0.034-0.084,0.054-0.179,0.065-0.273C-41.638,24.917-41.646,24.915-41.653,24.914z"/>
							<path id="path3682" fill="#9D1015" d="M-41.751,25.18c-0.011,0.031-0.024,0.062-0.038,0.092
								c0.002,0.001,0.004,0.002,0.006,0.002c0.015-0.03,0.027-0.062,0.039-0.093C-41.748,25.182-41.75,25.181-41.751,25.18z"/>
							<path id="path3684" fill="#A21116" d="M-41.745,25.182c-0.012,0.031-0.024,0.062-0.039,0.093
								c0.002,0.001,0.005,0.002,0.009,0.003c0.015-0.031,0.028-0.062,0.04-0.094C-41.739,25.183-41.742,25.183-41.745,25.182z"/>
							<path id="path3686" fill="#B11319" d="M-41.734,25.184c-0.012,0.032-0.025,0.063-0.04,0.094
								c0.004,0.001,0.009,0.002,0.015,0.003c0.015-0.03,0.029-0.062,0.042-0.094C-41.725,25.186-41.73,25.185-41.734,25.184z"/>
							<path id="path3688" fill="#CA171D" d="M-41.718,25.187c-0.013,0.032-0.026,0.063-0.042,0.094
								c0.006,0.002,0.014,0.003,0.024,0.005c0.015-0.03,0.029-0.062,0.042-0.094C-41.703,25.19-41.711,25.189-41.718,25.187z"/>
							<path id="path3690" fill="#9D1015" d="M-41.789,25.273c-0.034,0.072-0.082,0.148-0.138,0.217
								c0.003,0.001,0.004,0.002,0.007,0.002c0.056-0.068,0.103-0.144,0.138-0.217C-41.786,25.274-41.788,25.274-41.789,25.273z"/>
							<path id="path3692" fill="#A21116" d="M-41.783,25.275c-0.034,0.072-0.081,0.148-0.138,0.217
								c0.002,0.001,0.004,0.001,0.007,0.001c0.058-0.068,0.104-0.142,0.14-0.216C-41.778,25.277-41.781,25.276-41.783,25.275z"/>
							<path id="path3694" fill="#B11319" d="M-41.774,25.278c-0.036,0.074-0.082,0.148-0.14,0.216
								c0.003,0.001,0.007,0.001,0.013,0.002c0.059-0.067,0.105-0.139,0.142-0.214C-41.766,25.28-41.77,25.279-41.774,25.278z"/>
							<path id="path3696" fill="#CA171D" d="M-41.759,25.281c-0.037,0.075-0.083,0.148-0.142,0.214
								c0.006,0.001,0.013,0.002,0.023,0.004c0.06-0.066,0.105-0.137,0.143-0.213C-41.745,25.284-41.753,25.283-41.759,25.281z"/>
							<path id="path3698" fill="#9D1015" d="M-41.928,25.49c-0.025,0.031-0.052,0.061-0.08,0.087
								c0.003,0.001,0.005,0.002,0.006,0.003c0.027-0.026,0.056-0.058,0.08-0.088C-41.923,25.492-41.925,25.491-41.928,25.49z"/>
							<path id="path3700" fill="#A21116" d="M-41.921,25.492c-0.025,0.03-0.053,0.062-0.08,0.088
								c0.001,0.001,0.003,0.001,0.005,0.002c0.026-0.025,0.059-0.061,0.082-0.089C-41.917,25.493-41.919,25.492-41.921,25.492z"/>
							<path id="path3702" fill="#B11319" d="M-41.914,25.493c-0.023,0.028-0.057,0.064-0.082,0.089
								c0.002,0.001,0.005,0.001,0.011,0.002c0.024-0.023,0.062-0.064,0.084-0.089C-41.907,25.494-41.911,25.494-41.914,25.493z"/>
							<path id="path3704" fill="#CA171D" d="M-41.902,25.495c-0.022,0.025-0.06,0.066-0.084,0.089
								c0.005,0.001,0.012,0.002,0.022,0.004c0.023-0.022,0.064-0.065,0.085-0.089C-41.888,25.497-41.896,25.496-41.902,25.495z"/>
							<path id="path3706" fill="#ED1C24" d="M-45.198,25.16c0.08-0.007,0.099-0.006,0.119-0.008c0.004,0.067,0.013,0.134,0.026,0.2
								c-0.024-0.001-0.049-0.003-0.106-0.002C-45.176,25.288-45.189,25.224-45.198,25.16z"/>
							<path id="path3708" fill="#ED1C24" d="M-45.079,25.153c0.095-0.006,0.19-0.007,0.286-0.006c0,0.07-0.007,0.149-0.002,0.217
								c-0.086-0.005-0.172-0.008-0.258-0.01C-45.066,25.287-45.075,25.22-45.079,25.153z"/>
							<path id="path3710" fill="#ED1C24" d="M-44.793,25.147c0.172,0.002,0.344,0.013,0.515,0.024
								c-0.012,0.076-0.04,0.154-0.054,0.226c-0.154-0.013-0.308-0.025-0.462-0.034C-44.8,25.296-44.793,25.217-44.793,25.147z"/>
							<path id="path3712" fill="#ED1C24" d="M-44.278,25.171c-0.012,0.076-0.04,0.154-0.054,0.226
								c0.096,0.008,0.192,0.017,0.29,0.026c0.027-0.07,0.069-0.15,0.089-0.227C-44.062,25.187-44.17,25.179-44.278,25.171z"/>
							<path id="path3714" fill="#EB1B23" d="M-43.954,25.197c-0.021,0.076-0.062,0.157-0.089,0.227
								c0.097,0.009,0.195,0.019,0.292,0.03c0.039-0.068,0.09-0.147,0.119-0.223C-43.739,25.217-43.846,25.206-43.954,25.197z"/>
							<path id="path3716" fill="#E51B22" d="M-43.632,25.229c0.117,0.013,0.234,0.028,0.351,0.045
								c-0.019,0.038-0.044,0.076-0.069,0.113c-0.113-0.016-0.225-0.03-0.338-0.043C-43.667,25.306-43.647,25.267-43.632,25.229z"/>
							<path id="path3718" fill="#E21A22" d="M-43.688,25.344c0.112,0.013,0.225,0.027,0.338,0.043
								c-0.026,0.037-0.053,0.072-0.08,0.106c-0.107-0.015-0.214-0.028-0.321-0.04C-43.731,25.419-43.709,25.382-43.688,25.344z"/>
							<path id="path3720" fill="#E11A22" d="M-43.281,25.274c0.117,0.016,0.234,0.034,0.351,0.054
								c-0.024,0.038-0.053,0.076-0.084,0.112c-0.111-0.019-0.223-0.037-0.336-0.053C-43.324,25.35-43.3,25.312-43.281,25.274z"/>
							<path id="path3722" fill="#DC1921" d="M-43.35,25.387c0.113,0.016,0.225,0.034,0.336,0.053
								c-0.031,0.036-0.064,0.071-0.098,0.103c-0.105-0.019-0.211-0.035-0.318-0.05C-43.403,25.459-43.376,25.423-43.35,25.387z"/>
							<path id="path3724" fill="#D91920" d="M-42.93,25.328c0.073,0.012,0.153,0.028,0.235,0.047
								c-0.027,0.038-0.059,0.075-0.094,0.111c-0.079-0.019-0.155-0.035-0.225-0.047C-42.983,25.404-42.955,25.366-42.93,25.328z"/>
							<path id="path3726" fill="#D3181F" d="M-43.014,25.44c0.07,0.012,0.146,0.028,0.225,0.047
								c-0.035,0.036-0.072,0.071-0.109,0.103c-0.075-0.019-0.148-0.035-0.214-0.047C-43.078,25.51-43.045,25.476-43.014,25.44z"/>
							<path id="path3728" fill="#CB171E" d="M-42.695,25.375c0.119,0.027,0.244,0.059,0.362,0.094
								c-0.032,0.037-0.068,0.075-0.107,0.111c-0.115-0.034-0.235-0.067-0.349-0.094C-42.754,25.45-42.722,25.413-42.695,25.375z"/>
							<path id="path3730" fill="#C9171D" d="M-42.789,25.486c0.114,0.027,0.234,0.06,0.349,0.094
								c-0.039,0.036-0.081,0.071-0.124,0.101c-0.11-0.033-0.225-0.066-0.333-0.093C-42.861,25.557-42.824,25.522-42.789,25.486z"/>
							<path id="path3732" fill="#AE1318" d="M-42.333,25.469c-0.032,0.037-0.068,0.075-0.107,0.111
								c0.057,0.017,0.113,0.035,0.166,0.052c0.04-0.035,0.077-0.073,0.113-0.109C-42.216,25.504-42.274,25.487-42.333,25.469z"/>
							<path id="path3734" fill="#A21116" d="M-42.161,25.523c0.055,0.018,0.106,0.037,0.153,0.055
								c-0.019,0.018-0.038,0.036-0.057,0.054c-0.047-0.018-0.098-0.036-0.151-0.054C-42.198,25.56-42.179,25.541-42.161,25.523z"/>
							<path id="path3736" fill="#A31116" d="M-42.216,25.578c0.054,0.018,0.104,0.036,0.151,0.054
								c-0.02,0.018-0.04,0.035-0.06,0.052c-0.046-0.017-0.096-0.034-0.149-0.051C-42.254,25.614-42.235,25.596-42.216,25.578z"/>
							<path id="path3738" fill="#B21319" d="M-42.44,25.58c-0.039,0.036-0.081,0.071-0.124,0.101
								c0.055,0.017,0.108,0.033,0.159,0.05c0.048-0.03,0.091-0.064,0.131-0.099C-42.327,25.615-42.383,25.597-42.44,25.58z"/>
							<path id="path3740" fill="#A81217" d="M-42.274,25.632c-0.04,0.036-0.083,0.069-0.131,0.099
								c0.051,0.016,0.099,0.032,0.143,0.047c0.05-0.03,0.095-0.061,0.137-0.095C-42.171,25.667-42.221,25.649-42.274,25.632z"/>
							<path id="path3742" fill="#9D1015" d="M-42.008,25.577c0.003,0.001,0.005,0.002,0.006,0.003
								c-0.019,0.018-0.038,0.036-0.058,0.054c-0.001-0.001-0.003-0.001-0.006-0.002C-42.046,25.614-42.027,25.596-42.008,25.577z"
								/>
							<path id="path3744" fill="#9E1116" d="M-42.065,25.632c0.003,0.001,0.004,0.002,0.006,0.002
								c-0.02,0.018-0.04,0.035-0.061,0.052c-0.001-0.001-0.003-0.001-0.005-0.002C-42.105,25.666-42.085,25.649-42.065,25.632z"/>
							<path id="path3746" fill="#A21116" d="M-42.002,25.58c0.001,0.001,0.003,0.001,0.005,0.002
								c-0.019,0.018-0.038,0.036-0.058,0.054c-0.002-0.001-0.003-0.001-0.005-0.002C-42.04,25.616-42.021,25.598-42.002,25.58z"/>
							<path id="path3748" fill="#A41117" d="M-42.059,25.634c0.001,0.001,0.003,0.001,0.005,0.002
								c-0.02,0.017-0.04,0.035-0.061,0.051c-0.002,0-0.003-0.001-0.004-0.001C-42.099,25.669-42.079,25.652-42.059,25.634z"/>
							<path id="path3750" fill="#A41117" d="M-42.125,25.683c-0.042,0.034-0.086,0.065-0.137,0.095
								c0.003,0.001,0.004,0.002,0.005,0.002c0.05-0.03,0.095-0.061,0.137-0.095C-42.121,25.685-42.123,25.684-42.125,25.683z"/>
							<path id="path3752" fill="#A91217" d="M-42.12,25.685c-0.042,0.034-0.087,0.065-0.137,0.095c0.001,0,0.001,0,0.003,0.001
								c0.051-0.029,0.096-0.061,0.138-0.094C-42.118,25.686-42.119,25.686-42.12,25.685z"/>
							<path id="path3754" fill="#B11319" d="M-41.996,25.582c-0.038,0.036-0.077,0.072-0.119,0.105c0.002,0,0.005,0.001,0.01,0.001
								c0.043-0.033,0.082-0.068,0.121-0.104C-41.991,25.583-41.994,25.582-41.996,25.582z"/>
							<path id="path3756" fill="#CA171D" d="M-41.986,25.584c-0.038,0.036-0.078,0.071-0.121,0.104
								c0.005,0,0.012,0.001,0.021,0.002c0.043-0.032,0.083-0.066,0.122-0.103C-41.973,25.586-41.98,25.585-41.986,25.584z"/>
							<path id="path3758" fill="#B7141A" d="M-42.116,25.687c-0.042,0.033-0.088,0.065-0.138,0.094c0.002,0,0.004,0,0.009,0
								c0.051-0.029,0.096-0.06,0.139-0.093C-42.111,25.687-42.114,25.687-42.116,25.687z"/>
							<path id="path3760" fill="#CE171E" d="M-42.106,25.688c-0.043,0.033-0.088,0.064-0.139,0.093c0.004,0,0.011,0,0.021,0.001
								c0.051-0.029,0.097-0.06,0.14-0.092C-42.095,25.689-42.102,25.688-42.106,25.688z"/>
							<path id="path3762" fill="#ED1C24" d="M-45.159,25.351c0.057-0.001,0.082,0.001,0.106,0.002
								c0.005,0.026,0.015,0.052,0.027,0.078c-0.023-0.002-0.063-0.005-0.111-0.005C-45.145,25.401-45.152,25.376-45.159,25.351z"/>
							<path id="path3764" fill="#ED1C24" d="M-45.137,25.426c0.048,0,0.088,0.004,0.111,0.005c0.038,0.079,0.102,0.156,0.135,0.227
								c-0.03-0.002-0.125-0.008-0.154-0.01C-45.081,25.575-45.112,25.501-45.137,25.426z"/>
							<path id="path3766" fill="#ED1C24" d="M-45.053,25.353c0.086,0.002,0.172,0.005,0.258,0.01
								c0.008,0.107,0.061,0.218,0.098,0.311c-0.065-0.007-0.13-0.012-0.193-0.017C-44.935,25.564-45.033,25.459-45.053,25.353z"/>
							<path id="path3768" fill="#ED1C24" d="M-44.795,25.363c0.154,0.009,0.309,0.021,0.462,0.034
								c-0.023,0.111-0.032,0.225-0.015,0.316c-0.112-0.013-0.232-0.027-0.35-0.039C-44.734,25.582-44.787,25.471-44.795,25.363z"/>
							<path id="path3770" fill="#ED1C24" d="M-44.333,25.397c-0.023,0.111-0.032,0.225-0.015,0.316
								c0.073,0.008,0.136,0.016,0.194,0.024c0.007-0.096,0.068-0.204,0.11-0.314C-44.14,25.414-44.237,25.406-44.333,25.397z"/>
							<path id="path3772" fill="#E91B23" d="M-44.043,25.423c-0.043,0.11-0.104,0.218-0.11,0.314
								c0.058,0.008,0.112,0.015,0.166,0.023c0.03-0.101,0.174-0.2,0.237-0.308C-43.849,25.442-43.946,25.432-44.043,25.423z"/>
							<path id="path3774" fill="#E01A21" d="M-43.751,25.453c0.214,0.024,0.429,0.052,0.639,0.09
								c-0.055,0.052-0.144,0.097-0.233,0.143c-0.194-0.035-0.37-0.056-0.537-0.076C-43.834,25.558-43.782,25.507-43.751,25.453z"/>
							<path id="path3776" fill="#E21A22" d="M-43.882,25.609c0.166,0.021,0.343,0.041,0.537,0.076
								c-0.089,0.046-0.176,0.093-0.226,0.147c-0.177-0.033-0.298-0.054-0.417-0.072C-43.972,25.71-43.929,25.66-43.882,25.609z"/>
							<path id="path3778" fill="#CF171E" d="M-43.112,25.542c0.066,0.012,0.139,0.028,0.214,0.047
								c-0.059,0.051-0.149,0.097-0.24,0.142c-0.073-0.017-0.147-0.035-0.207-0.046C-43.256,25.64-43.167,25.594-43.112,25.542z"/>
							<path id="path3780" fill="#D3181F" d="M-43.345,25.686c0.061,0.011,0.134,0.028,0.207,0.046
								c-0.09,0.046-0.181,0.091-0.241,0.142c-0.071-0.016-0.137-0.03-0.193-0.04C-43.521,25.778-43.434,25.732-43.345,25.686z"/>
							<path id="path3782" fill="#C7161D" d="M-42.898,25.589c0.109,0.027,0.224,0.059,0.333,0.093
								c-0.07,0.049-0.152,0.095-0.237,0.138c-0.112-0.031-0.231-0.064-0.336-0.089C-43.047,25.686-42.957,25.64-42.898,25.589z"/>
							<path id="path3784" fill="#CD171E" d="M-43.138,25.731c0.106,0.025,0.224,0.057,0.336,0.089
								c-0.085,0.044-0.174,0.085-0.258,0.126c-0.105-0.023-0.217-0.05-0.319-0.073C-43.319,25.823-43.228,25.777-43.138,25.731z"/>
							<path id="path3786" fill="#B9141A" d="M-42.564,25.681c-0.07,0.049-0.152,0.095-0.237,0.138
								c0.056,0.016,0.11,0.031,0.161,0.045c0.082-0.041,0.158-0.085,0.235-0.133C-42.456,25.715-42.51,25.698-42.564,25.681z"/>
							<path id="path3788" fill="#B31419" d="M-42.405,25.731c-0.077,0.048-0.153,0.092-0.235,0.133
								c0.05,0.014,0.097,0.026,0.137,0.036c0.084-0.035,0.16-0.075,0.241-0.122C-42.306,25.763-42.354,25.748-42.405,25.731z"/>
							<path id="path3790" fill="#C3161C" d="M-42.801,25.82c0.112,0.031,0.218,0.061,0.298,0.081
								c-0.084,0.035-0.174,0.067-0.282,0.098c-0.072-0.01-0.169-0.03-0.274-0.053C-42.976,25.905-42.887,25.863-42.801,25.82z"/>
							<path id="path3792" fill="#B11319" d="M-42.262,25.778c-0.044,0.026-0.087,0.05-0.131,0.071
								c0.002,0.001,0.003,0.002,0.004,0.002c0.044-0.022,0.087-0.046,0.132-0.072C-42.258,25.78-42.259,25.779-42.262,25.778z"/>
							<path id="path3794" fill="#B5141A" d="M-42.257,25.78c-0.044,0.026-0.087,0.05-0.132,0.072
								c0.001,0.001,0.002,0.001,0.004,0.001c0.046-0.022,0.087-0.047,0.13-0.072C-42.256,25.781-42.256,25.781-42.257,25.78z"/>
							<path id="path3796" fill="#C0151C" d="M-42.254,25.781c-0.044,0.026-0.085,0.05-0.13,0.072c0.002,0,0.005,0.001,0.009,0.001
								c0.047-0.022,0.086-0.048,0.13-0.073C-42.25,25.781-42.252,25.781-42.254,25.781z"/>
							<path id="path3798" fill="#D3181F" d="M-42.246,25.781c-0.044,0.025-0.083,0.051-0.13,0.073c0.004,0,0.01,0.001,0.018,0.001
								c0.048-0.022,0.089-0.048,0.133-0.073C-42.235,25.782-42.241,25.781-42.246,25.781z"/>
							<path id="path3800" fill="#B8141A" d="M-42.393,25.85c-0.116,0.058-0.236,0.103-0.392,0.149c0.001,0,0.002,0,0.004,0.001
								c0.155-0.044,0.276-0.09,0.392-0.147C-42.39,25.851-42.391,25.851-42.393,25.85z"/>
							<path id="path3802" fill="#BB151B" d="M-42.389,25.852c-0.116,0.057-0.237,0.103-0.392,0.147
								c0.002,0,0.005,0.001,0.008,0.001c0.151-0.041,0.271-0.09,0.388-0.147C-42.386,25.853-42.387,25.852-42.389,25.852z"/>
							<path id="path3804" fill="#C5161C" d="M-42.385,25.853c-0.118,0.056-0.237,0.105-0.388,0.147c0.003,0,0.007,0,0.011,0
								c0.147-0.039,0.267-0.09,0.386-0.146C-42.38,25.854-42.383,25.854-42.385,25.853z"/>
							<path id="path3806" fill="#D5181F" d="M-42.376,25.854c-0.119,0.056-0.239,0.107-0.386,0.146
								c0.004,0,0.009-0.001,0.013-0.002c0.145-0.037,0.271-0.088,0.391-0.143C-42.366,25.855-42.371,25.855-42.376,25.854z"/>
							<path id="path3808" fill="#ED1C24" d="M-45.045,25.648c0.029,0.002,0.124,0.007,0.154,0.01
								c0.061,0.13,0.147,0.261,0.234,0.379c-0.025-0.006-0.13-0.025-0.155-0.031C-44.904,25.892-44.983,25.772-45.045,25.648z"/>
							<path id="path3810" fill="#ED1C24" d="M-44.891,25.658c0.063,0.005,0.128,0.011,0.193,0.017
								c0.052,0.141,0.153,0.259,0.229,0.4c-0.054-0.012-0.142-0.026-0.188-0.038C-44.744,25.919-44.83,25.788-44.891,25.658z"/>
							<path id="path3812" fill="#ED1C24" d="M-44.698,25.675c0.118,0.012,0.237,0.026,0.35,0.039
								c0.031,0.166,0.026,0.238,0.13,0.417c-0.085-0.017-0.153-0.035-0.251-0.056C-44.545,25.934-44.645,25.815-44.698,25.675z"/>
							<path id="path3814" fill="#ED1C24" d="M-44.348,25.714c0.031,0.166,0.026,0.238,0.13,0.417
								c0.05,0.009,0.094,0.015,0.134,0.019c-0.09-0.181-0.076-0.259-0.07-0.412C-44.212,25.73-44.275,25.722-44.348,25.714z"/>
							<path id="path3816" fill="#EB1B23" d="M-44.154,25.737c0.058,0.008,0.112,0.015,0.166,0.023
								c-0.021,0.07-0.034,0.123-0.033,0.182c-0.046-0.005-0.088-0.007-0.134-0.01C-44.161,25.872-44.156,25.814-44.154,25.737z"/>
							<path id="path3818" fill="#ED1C24" d="M-44.154,25.933c0.045,0.003,0.087,0.005,0.134,0.01
								c0.001,0.058,0.018,0.122,0.055,0.213c-0.039-0.001-0.077-0.003-0.118-0.007C-44.128,26.059-44.147,25.994-44.154,25.933z"/>
							<path id="path3820" fill="#E51B22" d="M-43.988,25.761c0.119,0.018,0.239,0.04,0.417,0.072
								c-0.052,0.057-0.085,0.097-0.099,0.145c-0.154-0.025-0.248-0.025-0.35-0.036C-44.022,25.884-44.009,25.831-43.988,25.761z"/>
							<path id="path3822" fill="#EB1B23" d="M-44.02,25.942c0.102,0.01,0.196,0.011,0.35,0.036c-0.015,0.049-0.011,0.107,0.01,0.2
								c-0.131-0.018-0.22-0.019-0.305-0.022C-44.003,26.065-44.019,26.001-44.02,25.942z"/>
							<path id="path3824" fill="#DC1921" d="M-43.571,25.833c0.056,0.01,0.122,0.025,0.193,0.04
								c-0.051,0.045-0.115,0.078-0.155,0.131c-0.046-0.015-0.091-0.028-0.133-0.038C-43.65,25.922-43.618,25.885-43.571,25.833z"/>
							<path id="path3826" fill="#E51B22" d="M-43.666,25.966c0.041,0.01,0.086,0.023,0.133,0.038
								c-0.024,0.031-0.032,0.064-0.032,0.098c-0.04-0.013-0.073-0.041-0.114-0.048C-43.68,26.019-43.676,25.991-43.666,25.966z"/>
							<path id="path3828" fill="#EC1B23" d="M-43.679,26.053c0.041,0.008,0.074,0.036,0.114,0.048c0,0.034,0.008,0.068,0.016,0.102
								c-0.034-0.011-0.07-0.02-0.111-0.026C-43.672,26.127-43.678,26.087-43.679,26.053z"/>
							<path id="path3830" fill="#D71920" d="M-43.378,25.873c-0.038,0.034-0.083,0.061-0.12,0.094
								c0.081,0.017,0.166,0.037,0.247,0.054c0.046-0.022,0.143-0.049,0.193-0.075C-43.164,25.923-43.276,25.896-43.378,25.873z"/>
							<path id="path3832" fill="#D0181E" d="M-43.059,25.946c-0.049,0.026-0.146,0.053-0.193,0.075
								c0.081,0.017,0.157,0.03,0.218,0.034c0.055-0.011,0.188-0.039,0.248-0.056C-42.857,25.989-42.954,25.969-43.059,25.946z"/>
							<path id="path3834" fill="#E11A21" d="M-43.498,25.967c-0.013,0.011-0.025,0.024-0.035,0.037
								c0.071,0.013,0.146,0.03,0.216,0.043c0.019-0.009,0.043-0.018,0.066-0.027C-43.332,26.004-43.418,25.984-43.498,25.967z"/>
							<path id="path3836" fill="#DB1920" d="M-43.252,26.02c-0.023,0.009-0.047,0.017-0.066,0.027
								c0.07,0.013,0.137,0.024,0.193,0.024c0.027-0.005,0.058-0.01,0.091-0.016C-43.095,26.051-43.171,26.037-43.252,26.02z"/>
							<path id="path3838" fill="#E41A22" d="M-43.533,26.004c0.143,0.027,0.297,0.067,0.409,0.067
								c-0.087,0.017-0.141,0.036-0.153,0.116c-0.095,0.005-0.184-0.028-0.284-0.048C-43.569,26.093-43.566,26.046-43.533,26.004z"
								/>
							<path id="path3840" fill="#ED1C24" d="M-43.562,26.139c0.101,0.02,0.19,0.053,0.284,0.048
								c-0.005,0.032-0.004,0.064,0.003,0.097c-0.103-0.006-0.177-0.05-0.275-0.081C-43.554,26.182-43.559,26.161-43.562,26.139z"/>
							<path id="path3842" fill="#CB171E" d="M-42.785,25.999c-0.06,0.018-0.193,0.046-0.248,0.056c-0.001,0-0.001,0-0.001,0
								c0.06-0.011,0.19-0.037,0.253-0.055C-42.783,25.999-42.784,25.999-42.785,25.999z"/>
							<path id="path3844" fill="#CD171E" d="M-42.781,25.999c-0.063,0.018-0.193,0.044-0.253,0.055c0.001,0,0.002,0,0.004,0
								c0.071-0.013,0.188-0.036,0.257-0.054C-42.776,26-42.779,25.999-42.781,25.999z"/>
							<path id="path3846" fill="#D4181F" d="M-42.773,26c-0.069,0.019-0.186,0.041-0.257,0.054c0.002,0,0.006,0,0.01,0
								c0.082-0.015,0.182-0.035,0.258-0.055C-42.766,26-42.769,26-42.773,26z"/>
							<path id="path3848" fill="#DF1A21" d="M-42.761,26c-0.076,0.02-0.176,0.04-0.258,0.055c0.004,0,0.01,0,0.017,0
								c0.087-0.016,0.176-0.037,0.254-0.057C-42.753,25.999-42.757,26-42.761,26z"/>
							<path id="path3850" fill="#D91920" d="M-43.033,26.055c-0.017,0.003-0.033,0.006-0.048,0.009
								c-0.002-0.001-0.001-0.001,0.004-0.001c0.015-0.002,0.032-0.005,0.048-0.008C-43.034,26.054-43.035,26.054-43.033,26.055z"/>
							<path id="path3852" fill="#DD1921" d="M-43.03,26.054c-0.016,0.003-0.033,0.005-0.048,0.008c0.002,0,0.006,0,0.011,0
								c0.015-0.002,0.032-0.005,0.047-0.008C-43.024,26.055-43.027,26.054-43.03,26.054z"/>
							<path id="path3854" fill="#E31A22" d="M-43.019,26.055c-0.016,0.003-0.032,0.005-0.047,0.008c0.005,0,0.011,0,0.019,0
								c0.015-0.002,0.03-0.005,0.046-0.008C-43.009,26.055-43.015,26.055-43.019,26.055z"/>
							<path id="path3856" fill="#DC1921" d="M-43.082,26.063c-0.019,0.003-0.036,0.006-0.052,0.01c-0.002,0-0.001,0,0.004,0.001
								c0.016-0.002,0.036-0.009,0.053-0.012C-43.083,26.062-43.083,26.063-43.082,26.063z"/>
							<path id="path3858" fill="#DF1A21" d="M-43.077,26.062c-0.017,0.003-0.037,0.009-0.053,0.012
								c0.003,0,0.006,0.001,0.011,0.001c0.016-0.002,0.037-0.011,0.052-0.013C-43.072,26.062-43.075,26.062-43.077,26.062z"/>
							<path id="path3860" fill="#E51A22" d="M-43.067,26.062c-0.016,0.003-0.037,0.011-0.052,0.013
								c0.005,0.001,0.012,0.001,0.02,0.002c0.016-0.002,0.036-0.013,0.051-0.015C-43.056,26.062-43.062,26.062-43.067,26.062z"/>
							<path id="path3862" fill="#DF1A21" d="M-43.134,26.073c-0.019,0.004-0.036,0.008-0.051,0.013
								c0.005,0.001,0.012,0.002,0.023,0.004c0.009-0.011,0.02-0.005,0.031-0.015C-43.135,26.073-43.136,26.073-43.134,26.073z"/>
							<path id="path3864" fill="#E11A22" d="M-43.131,26.074c-0.011,0.01-0.022,0.004-0.031,0.015
								c0.012,0.002,0.029,0.004,0.053,0.007c0.004-0.017,0.006-0.002,0.009-0.018C-43.116,26.076-43.125,26.075-43.131,26.074z"/>
							<path id="path3866" fill="#E21A22" d="M-43.185,26.086c-0.015,0.005-0.028,0.01-0.039,0.017
								c0.01,0.005,0.021,0.011,0.038,0.018c0.006-0.003,0.015-0.023,0.024-0.031C-43.174,26.088-43.18,26.086-43.185,26.086z"/>
							<path id="path3868" fill="#E51A22" d="M-43.162,26.089c-0.009,0.008-0.018,0.027-0.024,0.031
								c0.017,0.006,0.04,0.013,0.071,0.022c0,0,0.003-0.035,0.006-0.046C-43.133,26.093-43.15,26.091-43.162,26.089z"/>
							<path id="path3870" fill="#E51B22" d="M-43.224,26.102c-0.029,0.017-0.047,0.042-0.053,0.085
								c0.017,0.009,0.036,0.019,0.062,0.03c0.001-0.04,0.014-0.069,0.03-0.097C-43.203,26.114-43.214,26.108-43.224,26.102z"/>
							<path id="path3872" fill="#E71B23" d="M-43.186,26.12c-0.016,0.028-0.028,0.057-0.03,0.097
								c0.026,0.011,0.058,0.022,0.101,0.036c-0.004-0.037-0.003-0.073-0.001-0.112C-43.146,26.133-43.169,26.126-43.186,26.12z"/>
							<path id="path3874" fill="#EC1B23" d="M-43.278,26.187c0.035,0.019,0.076,0.038,0.163,0.066
								c0.003,0.032,0.01,0.065,0.022,0.102c-0.099-0.031-0.143-0.051-0.182-0.071C-43.281,26.252-43.283,26.219-43.278,26.187z"/>
							<path id="path3876" fill="#ED1C24" d="M-44.811,26.006c0.025,0.007,0.13,0.025,0.155,0.031
								c0.098,0.132,0.168,0.251,0.282,0.361c-0.022-0.011-0.051-0.024-0.072-0.036C-44.584,26.253-44.707,26.133-44.811,26.006z"/>
							<path id="path3878" fill="#ED1C24" d="M-44.657,26.037c0.098,0.132,0.168,0.251,0.282,0.361
								c0.021,0.011,0.049,0.021,0.077,0.029c-0.125-0.128-0.164-0.205-0.268-0.371C-44.6,26.049-44.634,26.043-44.657,26.037z"/>
							<path id="path3880" fill="#ED1C24" d="M-44.565,26.056c0.104,0.166,0.143,0.243,0.268,0.371
								c0.028,0.009,0.056,0.016,0.08,0.023c-0.137-0.147-0.141-0.177-0.251-0.375C-44.495,26.069-44.531,26.062-44.565,26.056z"/>
							<path id="path3882" fill="#ED1C24" d="M-44.468,26.074c0.097,0.021,0.165,0.039,0.251,0.056
								c0.088,0.152,0.124,0.272,0.226,0.39c-0.088-0.024-0.143-0.045-0.226-0.07C-44.355,26.303-44.359,26.273-44.468,26.074z"/>
							<path id="path3884" fill="#ED1C24" d="M-44.218,26.13c0.1,0.019,0.175,0.023,0.252,0.026
								c0.062,0.147,0.152,0.306,0.257,0.438c-0.087-0.021-0.177-0.045-0.284-0.074C-44.094,26.402-44.129,26.282-44.218,26.13z"/>
							<path id="path3886" fill="#ED1C24" d="M-43.965,26.156c0.085,0.003,0.175,0.004,0.305,0.022
								c0.032,0.141,0.132,0.331,0.242,0.48c-0.104-0.021-0.195-0.041-0.29-0.063C-43.814,26.462-43.903,26.303-43.965,26.156z"/>
							<path id="path3888" fill="#ED1C24" d="M-43.66,26.178c0.041,0.006,0.077,0.015,0.111,0.026
								c0.034,0.153,0.099,0.323,0.214,0.472c-0.024-0.005-0.05-0.011-0.082-0.018C-43.528,26.509-43.628,26.319-43.66,26.178z"/>
							<path id="path3890" fill="#ED1C24" d="M-43.549,26.203c0.097,0.031,0.172,0.075,0.275,0.081
								c0.045,0.212,0.048,0.309,0.189,0.453c-0.128-0.031-0.181-0.046-0.25-0.062C-43.451,26.527-43.515,26.356-43.549,26.203z"/>
							<path id="path3892" fill="#ED1C24" d="M-43.274,26.285c0.039,0.02,0.083,0.04,0.182,0.071
								c0.066,0.209,0.216,0.399,0.425,0.544c-0.088-0.009-0.34-0.143-0.417-0.162C-43.226,26.594-43.23,26.497-43.274,26.285z"/>
							<path id="path3894" fill="#ED1C24" d="M-44.447,26.362c0.021,0.012,0.05,0.025,0.072,0.036
								c0.035,0.034,0.074,0.066,0.119,0.099c-0.022-0.012-0.039-0.025-0.06-0.037C-44.361,26.428-44.404,26.395-44.447,26.362z"/>
							<path id="path3896" fill="#ED1C24" d="M-44.375,26.398c0.043,0.022,0.11,0.038,0.157,0.052
								c0.033,0.035,0.067,0.076,0.113,0.11c-0.045-0.014-0.108-0.04-0.151-0.064C-44.301,26.464-44.34,26.431-44.375,26.398z"/>
							<path id="path3898" fill="#ED1C24" d="M-44.218,26.45c0.083,0.025,0.138,0.046,0.226,0.07
								c0.031,0.036,0.06,0.075,0.101,0.116c-0.037-0.011-0.133-0.051-0.214-0.076C-44.151,26.526-44.185,26.485-44.218,26.45z"/>
							<path id="path3900" fill="#ED1C24" d="M-43.992,26.52c0.107,0.03,0.197,0.053,0.284,0.074
								c0.033,0.041,0.072,0.079,0.109,0.117c-0.089-0.02-0.184-0.043-0.292-0.076C-43.931,26.595-43.96,26.556-43.992,26.52z"/>
							<path id="path3902" fill="#ED1C24" d="M-43.708,26.594c0.095,0.023,0.186,0.043,0.29,0.063
								c0.034,0.046,0.069,0.088,0.102,0.123c-0.095-0.027-0.186-0.047-0.284-0.069C-43.636,26.673-43.675,26.635-43.708,26.594z"/>
							<path id="path3904" fill="#ED1C24" d="M-43.418,26.658c0.032,0.006,0.058,0.012,0.082,0.018
								c0.035,0.046,0.081,0.097,0.12,0.133c-0.036-0.01-0.071-0.019-0.1-0.028C-43.349,26.746-43.384,26.704-43.418,26.658z"/>
							<path id="path3906" fill="#ED1C24" d="M-43.335,26.675c0.07,0.016,0.122,0.031,0.25,0.062
								c0.044,0.044,0.085,0.112,0.156,0.152c-0.063-0.023-0.182-0.053-0.286-0.081C-43.254,26.772-43.3,26.721-43.335,26.675z"/>
							<path id="path3908" fill="#ED1C24" d="M-43.085,26.738c0.077,0.019,0.329,0.153,0.417,0.162
								c0.064,0.045,0.134,0.085,0.208,0.121c-0.087-0.006-0.391-0.102-0.469-0.131C-43,26.85-43.042,26.782-43.085,26.738z"/>
							<path id="path3910" fill="#ED1C24" d="M-44.316,26.459c0.021,0.012,0.039,0.025,0.06,0.037
								c0.034,0.024,0.069,0.047,0.105,0.07c-0.021-0.013-0.042-0.026-0.062-0.039C-44.248,26.505-44.282,26.483-44.316,26.459z"/>
							<path id="path3912" fill="#ED1C24" d="M-44.256,26.496c0.042,0.024,0.105,0.049,0.151,0.064
								c0.034,0.025,0.047,0.057,0.084,0.08c-0.044-0.024-0.087-0.048-0.13-0.074C-44.187,26.544-44.222,26.52-44.256,26.496z"/>
							<path id="path3914" fill="#ED1C24" d="M-44.105,26.56c0.034,0.025,0.047,0.057,0.084,0.08c0.04,0.021,0.08,0.042,0.121,0.062
								c-0.065-0.058-0.057-0.078-0.082-0.098C-44.02,26.589-44.064,26.573-44.105,26.56z"/>
							<path id="path3916" fill="#ED1C24" d="M-43.982,26.603c0.025,0.02,0.017,0.041,0.082,0.098
								c0.041,0.02,0.083,0.039,0.125,0.057c-0.092-0.092-0.101-0.107-0.116-0.122C-43.91,26.63-43.943,26.618-43.982,26.603z"/>
							<path id="path3918" fill="#ED1C24" d="M-43.891,26.636c0.108,0.033,0.203,0.055,0.292,0.076
								c0.028,0.03,0.081,0.109,0.16,0.173c-0.115-0.037-0.227-0.079-0.336-0.126C-43.867,26.666-43.876,26.652-43.891,26.636z"/>
							<path id="path3920" fill="#ED1C24" d="M-43.599,26.712c0.098,0.022,0.189,0.042,0.284,0.069
								c0.043,0.046,0.201,0.177,0.263,0.208c-0.132-0.029-0.261-0.064-0.387-0.105C-43.518,26.82-43.571,26.742-43.599,26.712z"/>
							<path id="path3922" fill="#ED1C24" d="M-43.315,26.781c0.03,0.009,0.064,0.018,0.1,0.028c0.044,0.042,0.23,0.176,0.288,0.207
								c-0.042-0.008-0.084-0.017-0.125-0.026C-43.114,26.958-43.273,26.827-43.315,26.781z"/>
							<path id="path3924" fill="#ED1C24" d="M-43.215,26.809c0.015,0.004,0.031,0.008,0.047,0.012
								c0.043,0.04,0.239,0.174,0.295,0.204c-0.018-0.003-0.036-0.007-0.054-0.01C-42.985,26.985-43.171,26.851-43.215,26.809z"/>
							<path id="path3926" fill="#ED1C24" d="M-43.168,26.821c0.091,0.024,0.185,0.049,0.239,0.068
								c0.05,0.028,0.314,0.159,0.369,0.182c-0.102-0.011-0.207-0.027-0.313-0.046C-42.929,26.996-43.125,26.861-43.168,26.821z"/>
							<path id="path3928" fill="#ED1C24" d="M-42.929,26.89c0.03,0.011,0.093,0.032,0.164,0.054
								c0.057,0.027,0.246,0.117,0.308,0.138c-0.034-0.003-0.069-0.006-0.104-0.01C-42.616,27.049-42.879,26.918-42.929,26.89z"/>
							<path id="path3930" fill="#ED1C24" d="M-42.765,26.943c0.115,0.035,0.252,0.074,0.305,0.077
								c0.055,0.026,0.112,0.049,0.172,0.07c-0.054-0.002-0.109-0.004-0.168-0.009C-42.519,27.06-42.708,26.97-42.765,26.943z"/>
						</g>
					</g>
				</g>
			</g>
		</g>
	</g>
</g>
<path id="path78" fill="#5D6B77" d="M27.994,13.134c0,0-16.024-4.36-15.054,13.22C13.392,10.079,27.994,13.134,27.994,13.134z"/>
<path id="path80" fill="#5D6B77" d="M30.705,8.386c0,0-24-6.529-22.545,19.802C8.833,3.81,30.705,8.386,30.705,8.386z"/>
<path id="path82" fill="#5D6B77" d="M34.564,3.126c0,0-33.896-9.221-31.843,27.966C3.669-3.342,34.564,3.126,34.564,3.126z"/>
<rect id="rect6227" x="43" y="59.836" fill="#FFFFFF" stroke="#FFFFFF" stroke-width="0.001" width="0.059" height="0.059"/>
<g>
	<g>
		<rect x="18.775" y="15.902" fill="#BABCBE" width="10.028" height="7.274"/>
	</g>
	<g>
		<path fill="#BABCBE" d="M40.996,21.272c-1.157-0.001-22.407,0.037-23.146,0.036c0.033,1.708-0.112,5.531-0.092,7.216
			c0.066,5.45,12.159,14.55,12.5,23.514l9.595-0.007c-0.058-8.562-4.639-16.3-11.061-23.319c3.464,0,10.309,0,12.204,0.038
			C40.996,26.688,40.996,23.277,40.996,21.272"/>
	</g>
	<g>
		<path fill="#B1D23E" d="M8.404,53.493v0.315l-1.045,3.226H7.022l1.042-3.132v-0.011H6.889v-0.398H8.404z"/>
		<path fill="#BABCBE" d="M13.095,53.765h-0.758v-0.403h1.845v0.403H13.42v3.269h-0.325V53.765z"/>
		<path fill="#BABCBE" d="M20.505,55.16c0,1.264-0.521,1.934-1.158,1.934c-0.657,0-1.12-0.751-1.12-1.862
			c0-1.166,0.492-1.93,1.157-1.93C20.065,53.302,20.505,54.071,20.505,55.16z M18.572,55.219c0,0.784,0.288,1.487,0.795,1.487
			c0.51,0,0.798-0.691,0.798-1.525c0-0.729-0.258-1.492-0.795-1.492C18.838,53.689,18.572,54.413,18.572,55.219z"/>
		<path fill="#BABCBE" d="M25.163,53.362v2.174c0,0.821,0.247,1.171,0.579,1.171c0.37,0,0.607-0.359,0.607-1.171v-2.174h0.324v2.141
			c0,1.128-0.402,1.591-0.942,1.591c-0.51,0-0.895-0.43-0.895-1.568v-2.163H25.163z"/>
		<path fill="#BABCBE" d="M32.89,56.914c-0.118,0.087-0.355,0.18-0.657,0.18c-0.703,0-1.231-0.659-1.231-1.862
			c0-1.149,0.528-1.93,1.3-1.93c0.312,0,0.509,0.099,0.592,0.165l-0.077,0.387c-0.122-0.088-0.295-0.153-0.503-0.153
			c-0.583,0-0.972,0.55-0.972,1.515c0,0.897,0.351,1.476,0.958,1.476c0.195,0,0.395-0.06,0.525-0.152L32.89,56.914z"/>
		<path fill="#BABCBE" d="M38.315,53.362v1.537h1.206v-1.537h0.326v3.672h-0.326v-1.722h-1.206v1.722h-0.321v-3.672H38.315z"/>
	</g>
	<g>
		<path fill="#B1D23E" d="M5.73,21.272c1.154-0.001,22.346,0.037,23.085,0.036c-0.033,1.708,0.11,5.531,0.091,7.216
			c-0.066,5.45-12.128,14.55-12.467,23.514l-9.569-0.007c0.056-8.562,4.626-16.3,11.031-23.319c-3.456,0-10.28,0-12.171,0.038
			C5.73,26.688,5.73,23.277,5.73,21.272"/>
	</g>
</g>
</svg>
